<svg width="386" height="171" viewBox="0 0 386 171" fill="none" xmlns="http://www.w3.org/2000/svg">
<g clip-path="url(#clip0_3_211)">
<rect width="386" height="171" fill="white"/>
<path d="M383.521 2.30612L305.605 2.94067L271.267 2.30612L136.225 2.55872L90.8187 2L49.4224 2.30612H1.99999V46.44V66.7991V81.7292L2.75672 92.788L1.99999 95.5518L2.3803 97.3169L1.99999 168.848H85.4297L89.2558 169L200.502 168.848L343.411 168.942L383.521 168.848V144.842V83.7651L384 43.2297L383.521 22.6709V2.30612Z" stroke="black" stroke-width="2" stroke-linejoin="round"/>
<path d="M42.5046 87.2559C44.9932 84.1689 48.8055 83.3329 52.491 84.956C58.8536 87.7579 62.9942 93.6939 62.9942 101.056C62.9942 132.681 14.9609 109.366 39.5771 86.0176" stroke="black" stroke-opacity="0.9" stroke-width="3.6" stroke-linecap="round" stroke-linejoin="round"/>
<path d="M61.6236 121.008C64.9653 129.696 69.7635 140.961 68.5168 151.558" stroke="black" stroke-opacity="0.9" stroke-width="3.6" stroke-linecap="round" stroke-linejoin="round"/>
<path d="M61.9329 121.676C62.2926 127.781 61.9329 146.07 58.616 160.439" stroke="black" stroke-opacity="0.9" stroke-width="3.6" stroke-linecap="round" stroke-linejoin="round"/>
<path d="M77.6573 117.16C74.6778 129.504 72.1135 147.16 68.5148 151.558" stroke="black" stroke-opacity="0.9" stroke-width="3.6" stroke-linecap="round" stroke-linejoin="round"/>
<path d="M78.2812 115.291C82.6273 111.912 85.7138 115.407 80.7742 119.03" stroke="black" stroke-opacity="0.9" stroke-width="3.6" stroke-linecap="round" stroke-linejoin="round"/>
<path d="M80.6191 119.185C85.483 118.792 84.6972 122.852 80.1516 122.613" stroke="black" stroke-opacity="0.9" stroke-width="3.6" stroke-linecap="round" stroke-linejoin="round"/>
<path d="M74.073 97.9964C75.4973 101.826 78.0564 112.669 78.1238 112.953" stroke="#3E71F4" stroke-width="3.6" stroke-linecap="round" stroke-linejoin="round"/>
<path d="M74.3848 97.3733C82.4797 91.4814 90.8791 85.8992 99.1574 80.2346" stroke="black" stroke-opacity="0.9" stroke-width="3.6" stroke-linecap="round" stroke-linejoin="round"/>
<path d="M100.093 80.5461C101.564 89.0752 102.936 98.2057 105.546 106.409" stroke="black" stroke-opacity="0.9" stroke-width="3.6" stroke-linecap="round" stroke-linejoin="round"/>
<path d="M76.2551 107.656C85.8386 107.456 95.4685 106.41 105.078 106.41" stroke="black" stroke-opacity="0.9" stroke-width="3.6" stroke-linecap="round" stroke-linejoin="round"/>
<path d="M57.5611 110.788C57.3191 109.328 57.0199 107.474 56.8723 106.187" stroke="black" stroke-opacity="0.9" stroke-width="3.6" stroke-linecap="round" stroke-linejoin="round"/>
<path d="M57.4854 97.6948C57.5484 97.0413 57.31 95.955 57.1412 95.3764" stroke="black" stroke-opacity="0.9" stroke-width="3.6" stroke-linecap="round" stroke-linejoin="round"/>
<path d="M51.8027 98.2254C51.8322 97.6948 51.7776 96.9703 51.7189 96.1863" stroke="black" stroke-opacity="0.9" stroke-width="3.6" stroke-linecap="round" stroke-linejoin="round"/>
<path d="M107.727 80.5466C109.423 78.8738 113.364 76.4742 114.582 75.5607" stroke="#3E71F4" stroke-width="3.6" stroke-linecap="round" stroke-linejoin="round"/>
<path d="M112.417 89.9503C114.542 89.1395 116.83 88.552 118.961 87.9249" stroke="#3E71F4" stroke-width="3.6" stroke-linecap="round" stroke-linejoin="round"/>
<path d="M112.712 101.112C114.819 101.882 116.896 101.892 119.1 101.892" stroke="#3E71F4" stroke-width="3.6" stroke-linecap="round" stroke-linejoin="round"/>
<path d="M70.1783 100.489C66.2192 105.515 69.9937 107.815 74.5411 105.942" stroke="black" stroke-opacity="0.9" stroke-width="3.6" stroke-linecap="round" stroke-linejoin="round"/>
<path d="M83.2661 109.682C83.4617 111.235 82.2521 112.837 81.8643 114.044" stroke="black" stroke-opacity="0.9" stroke-width="3.6" stroke-linecap="round" stroke-linejoin="round"/>
<path d="M35.5588 123.681C39.2546 136.335 41.2396 141 41.2396 160.439" stroke="black" stroke-opacity="0.9" stroke-width="3.6" stroke-linecap="round" stroke-linejoin="round"/>
<path d="M35.2245 123.681C32.2209 130.297 23.1432 155.965 25.6236 159.771" stroke="black" stroke-opacity="0.9" stroke-width="3.6" stroke-linecap="round" stroke-linejoin="round"/>
<path d="M193.548 82.3324C198.097 78.5415 205.951 76.6594 211.926 79.0863C231.216 86.921 220.667 113.286 201.335 110.668C188.304 108.904 186.667 91.1159 196.8 87" stroke="black" stroke-opacity="0.9" stroke-width="4.8" stroke-linecap="round" stroke-linejoin="round"/>
<path d="M177.9 165C178.836 164.406 179.227 163.647 179.246 162.531C179.283 160.297 187.855 120.759 190.779 119.833M218.1 119.833C225.345 117.069 236.255 109.899 235.94 109.156C233.416 103.22 229.631 88.863 228.9 88.65C228.526 88.5406 228.9 85.35 227.49 83.25" stroke="black" stroke-opacity="0.9" stroke-width="4.8" stroke-linecap="round" stroke-linejoin="round"/>
<path d="M194.4 159.6C194.255 157.262 189.188 134.697 190.826 120" stroke="black" stroke-opacity="0.9" stroke-width="4.8" stroke-linecap="round" stroke-linejoin="round"/>
<path d="M218.1 120C217.463 132.508 213.057 146.952 213.604 159" stroke="black" stroke-opacity="0.9" stroke-width="4.8" stroke-linecap="round" stroke-linejoin="round"/>
<path fill-rule="evenodd" clip-rule="evenodd" d="M383.474 2.11328H239.361C235.556 8.44439 233.627 15.5762 234.06 23.4308C235.273 45.4766 241.47 53.1814 258.24 62.5786C260.682 63.9472 263.298 65.1661 266.095 66.2354C260.813 75.1806 252.77 86.4951 242.081 97.187C242.863 96.4049 243.994 95.885 245.635 95.1311C250.478 92.9055 259.76 88.6408 277.589 69.5723C285.153 71.1702 293.752 71.9689 303.499 71.9689C337.694 75.0322 365.795 70.0533 382.332 60.273C382.719 60.0441 383.1 59.8126 383.474 59.5785V2.11328Z" fill="white"/>
<path d="M239.361 2.11328V1.11328C239.01 1.11328 238.685 1.29727 238.504 1.59808L239.361 2.11328ZM383.474 2.11328H384.474C384.474 1.561 384.026 1.11328 383.474 1.11328V2.11328ZM234.06 23.4308L233.061 23.4857L234.06 23.4308ZM258.24 62.5786L257.751 63.4509L257.751 63.4509L258.24 62.5786ZM266.095 66.2354L266.956 66.7439C267.106 66.4903 267.136 66.1836 267.039 65.9056C266.942 65.6276 266.727 65.4065 266.452 65.3013L266.095 66.2354ZM241.374 96.48C240.983 96.8706 240.983 97.5038 241.374 97.8942C241.765 98.2847 242.398 98.2846 242.788 97.894L241.374 96.48ZM245.635 95.1311L245.218 94.2224L245.218 94.2224L245.635 95.1311ZM277.589 69.5723L277.796 68.5939C277.454 68.5215 277.098 68.6336 276.859 68.8893L277.589 69.5723ZM303.499 71.9689L303.588 70.9729C303.558 70.9703 303.529 70.9689 303.499 70.9689V71.9689ZM382.332 60.273L382.841 61.1337L382.841 61.1337L382.332 60.273ZM383.474 59.5785L384.004 60.4264C384.296 60.2436 384.474 59.9232 384.474 59.5785H383.474ZM239.361 3.11328H383.474V1.11328H239.361V3.11328ZM235.058 23.3758C234.637 15.7291 236.512 8.79491 240.219 2.62848L238.504 1.59808C234.6 8.09387 232.617 15.4234 233.061 23.4857L235.058 23.3758ZM258.729 61.7062C250.384 57.0299 244.817 52.8518 241.155 47.2039C237.496 41.5597 235.661 34.3252 235.058 23.3758L233.061 23.4857C233.672 34.5822 235.542 42.2229 239.477 48.2919C243.41 54.3572 249.326 58.73 257.751 63.4509L258.729 61.7062ZM266.452 65.3013C263.697 64.2483 261.126 63.0497 258.729 61.7062L257.751 63.4509C260.238 64.8446 262.898 66.0839 265.738 67.1695L266.452 65.3013ZM242.788 97.894C253.546 87.1332 261.639 75.7488 266.956 66.7439L265.234 65.7269C259.987 74.6123 251.994 85.8571 241.374 96.48L242.788 97.894ZM245.218 94.2224C243.637 94.9488 242.311 95.5429 241.374 96.48L242.788 97.894C243.415 97.2669 244.352 96.8212 246.053 96.0397L245.218 94.2224ZM276.859 68.8893C259.117 87.8643 249.941 92.0518 245.218 94.2224L246.053 96.0397C251.015 93.7593 260.403 89.4173 278.32 70.2553L276.859 68.8893ZM303.499 70.9689C293.805 70.9689 285.277 70.1744 277.796 68.5939L277.383 70.5507C285.029 72.166 293.699 72.9689 303.499 72.9689V70.9689ZM381.823 59.4122C365.539 69.0427 337.678 74.0268 303.588 70.9729L303.41 72.965C337.709 76.0375 366.051 71.0638 382.841 61.1337L381.823 59.4122ZM382.944 58.7306C382.576 58.9602 382.203 59.1875 381.823 59.4122L382.841 61.1337C383.235 60.9007 383.623 60.6649 384.004 60.4264L382.944 58.7306ZM382.474 2.11328V59.5785H384.474V2.11328H382.474Z" fill="black"/>
<path d="M250.788 21.2743C250.266 21.2705 250.092 20.5132 250.095 20.0992C250.098 19.6132 250.263 19.2544 250.606 19.0589C251.781 18.4014 253.241 18.088 254.969 18.1006C255.617 18.1053 256.103 18.1628 256.408 18.255C256.965 18.4211 257.484 18.8749 257.479 19.4868C257.478 19.6128 257.46 19.7027 257.423 19.7564C257.332 19.8998 257.062 19.9878 256.629 20.0207C255.675 20.0677 254.847 20.1337 254.144 20.2006C254.046 21.2619 254.003 22.3057 253.995 23.3136C253.983 25.0776 254.096 26.7525 254.337 28.3562C254.391 28.3386 254.824 28.2338 255.635 28.0057C256.177 27.8476 256.627 27.7789 256.969 27.7814C257.239 27.7833 257.382 27.8924 257.381 28.1263C257.378 28.4683 257.032 28.9878 256.725 29.1836C255.495 29.9307 252.865 30.2896 251.407 30.279C250.975 30.2759 250.651 30.2195 250.454 30.1281C250.185 29.9821 250.061 29.7112 250.064 29.3152C250.067 28.8292 250.375 28.5795 251.005 28.584C251.203 28.5855 251.653 28.6247 251.815 28.6259C252.175 28.6285 252.499 28.6129 252.769 28.5969C252.656 26.814 252.585 24.1494 252.575 20.6032C251.546 21.0458 250.95 21.2754 250.788 21.2743ZM269.599 30.2852C267.241 30.268 266.048 28.4413 266.064 26.2454C266.097 21.6735 270.189 18.3912 274.599 18.4232C275.049 18.4265 275.319 18.5004 275.407 18.6631C275.461 18.7535 275.477 19.0416 275.473 19.5096C275.472 19.6716 275.524 19.924 275.63 20.2487C275.736 20.5735 275.788 20.8079 275.787 20.9699C275.783 21.4919 274.987 21.9901 274.519 21.9867C274.321 21.9853 274.161 21.7681 274.038 21.3532C273.986 21.0468 273.916 20.7583 273.846 20.4518C271.702 20.7782 270.076 21.5584 268.933 22.8281C267.935 23.9549 267.423 25.0312 267.416 26.0572C267.404 27.6052 268.838 28.4436 270.242 28.4538C271.754 28.4648 273.579 27.542 274.898 26.8316C275.603 26.4587 276 26.2636 276.09 26.2642C276.324 26.2659 276.431 26.5007 276.427 26.9687C276.426 27.1667 276.28 27.3636 276.009 27.5957C275.774 27.738 275.557 27.8804 275.339 28.0408C273.15 29.555 271.237 30.2971 269.599 30.2852ZM278.388 30.673C277.83 30.669 277.278 29.837 277.282 29.315C277.283 29.171 277.411 28.9019 277.665 28.5077C277.829 28.2389 278.011 27.9702 278.193 27.7016C278.868 26.5724 279.544 25.1733 280.204 23.5041L281.856 19.1419C282.057 18.6574 282.419 18.408 282.959 18.4119C283.211 18.4138 283.408 18.5412 283.55 18.7942C283.674 19.0291 283.798 19.3361 283.922 19.715C284.115 20.3104 284.203 20.635 284.221 20.6712C285.191 23.3063 286.219 25.5818 287.321 27.4799C287.499 27.7512 287.677 28.0225 287.837 28.2936C288.068 28.7093 288.192 28.9802 288.191 29.1062C288.188 29.6102 287.518 30.0914 287.05 30.088C286.816 30.0863 286.566 29.8324 286.3 29.3085C286.158 28.9475 286.017 28.5864 285.858 28.2073C284.109 28.6086 281.91 29.0606 279.26 29.5274C278.93 30.299 278.64 30.6749 278.388 30.673ZM280.102 27.6434C281.94 27.3508 283.599 26.9488 285.097 26.4017C284.62 25.1922 283.859 23.3686 282.833 20.9491C282.412 21.864 281.514 24.0896 280.102 27.6434ZM289.6 21.6283C289.606 20.8003 289.646 20.2966 289.719 20.1171C289.885 19.6683 290.318 19.4554 291.002 19.4604C291.254 19.4622 291.434 19.5355 291.541 19.6623L297.609 26.8166C297.731 24.9274 297.816 23.02 297.884 21.1304C297.943 20.3929 298.002 19.7633 298.078 19.2418C298.154 18.6843 298.552 18.3992 299.29 18.4046C299.632 18.4071 299.793 18.5882 299.79 18.9482C299.789 19.0202 299.752 19.29 299.658 19.7393C299.266 21.6985 299.071 23.7851 299.054 26.0351C299.048 26.8811 299.061 27.6012 299.111 28.1775C299.18 28.5381 299.231 28.9524 299.229 29.3124C299.224 29.9064 298.826 30.2095 298.016 30.2036C297.674 30.2012 297.335 29.7487 297.068 29.3687L291.302 22.7567C291.242 23.6562 291.199 24.52 291.193 25.3299C291.183 26.7879 291.246 28.0124 291.365 28.9853C291.471 29.3101 291.521 29.7604 291.519 30.1024C291.515 30.5884 290.811 30.8533 290.397 30.8503C290.109 30.8482 289.93 30.7389 289.842 30.5223C289.771 30.3777 289.593 22.6362 289.6 21.6283ZM301.572 21.5172C301.573 21.3733 301.647 21.1578 301.793 20.8528C301.939 20.5479 302.159 20.0275 302.434 19.2735C302.692 18.5733 302.929 18.053 303.13 17.6945C303.276 17.4075 303.529 17.2654 303.871 17.2678C304.249 17.2706 304.841 17.5089 304.838 17.9589C304.836 18.2289 303.211 21.3672 302.92 21.7791C302.757 22.0119 302.558 22.1364 302.36 22.135C302.162 22.1335 301.982 22.0782 301.839 21.9692C301.66 21.8599 301.571 21.7152 301.572 21.5172ZM306.402 21.4263C306.242 21.1912 306.171 20.9206 306.173 20.6507C306.177 20.1647 306.378 19.8061 306.793 19.6111C308.184 18.9552 309.986 18.6443 312.2 18.6604C312.866 18.6652 313.388 18.723 313.747 18.8156C314.322 18.9818 314.716 19.2727 314.91 19.7241C314.963 19.8505 314.999 19.9408 314.998 20.0308C314.997 20.1568 314.961 20.2465 314.906 20.3181C314.779 20.4612 314.472 20.549 313.95 20.5812C312.96 20.61 312.006 20.657 311.123 20.7406C311.043 21.8741 310.999 22.9358 310.992 23.9438C310.979 25.6897 311.076 27.2564 311.299 28.6621C311.42 29.455 311.488 29.8875 311.488 29.9415C311.485 30.3735 310.691 30.6197 310.331 30.6171C310.061 30.6152 309.9 30.524 309.811 30.3253C309.688 29.9824 309.602 26.8857 309.573 21.0354C309.14 21.1942 308.706 21.3531 308.273 21.4939C307.642 21.7234 307.245 21.8285 307.047 21.827C306.777 21.8251 306.562 21.6975 306.402 21.4263ZM326.674 30.6999C324.316 30.6827 323.123 28.856 323.139 26.6601C323.172 22.0882 327.264 18.8058 331.674 18.8379C332.124 18.8412 332.393 18.9151 332.482 19.0778C332.535 19.1682 332.551 19.4563 332.548 19.9243C332.547 20.0863 332.599 20.3386 332.705 20.6634C332.81 20.9882 332.863 21.2226 332.861 21.3846C332.858 21.9066 332.062 22.4048 331.594 22.4014C331.396 22.4 331.236 22.1828 331.113 21.7679C331.061 21.4615 330.991 21.173 330.921 20.8665C328.777 21.1929 327.151 21.9731 326.008 23.2428C325.01 24.3696 324.498 25.4459 324.49 26.4719C324.479 28.0199 325.913 28.8583 327.317 28.8685C328.829 28.8795 330.654 27.9567 331.973 27.2463C332.678 26.8734 333.075 26.6783 333.165 26.6789C333.399 26.6806 333.505 26.9154 333.502 27.3834C333.5 27.5814 333.355 27.7783 333.083 28.0104C332.848 28.1527 332.631 28.2951 332.414 28.4555C330.225 29.9696 328.312 30.7118 326.674 30.6999ZM341.05 31.0203C337.846 30.997 335.289 28.5664 335.313 25.3265C335.34 21.5646 338.764 18.5834 342.436 18.6101C345.64 18.6333 348.214 21.0461 348.191 24.304C348.163 28.0659 344.722 31.047 341.05 31.0203ZM341.669 20.0985C339.113 20.08 337.296 22.4428 337.278 24.8728C337.26 27.3567 339.097 29.6921 341.689 29.7109C344.245 29.7295 346.08 27.3668 346.098 24.9368C346.116 22.4349 344.279 20.1175 341.669 20.0985ZM350.255 23.617C350.095 23.3998 350.007 23.1472 350.009 22.8592C350.011 22.5892 350.103 22.3199 350.303 22.0513C350.394 21.926 350.611 21.7115 350.92 21.4078C352.551 19.8536 354.266 19.092 356.066 19.1051C358.73 19.1245 360.802 21.3176 360.783 23.9635C360.771 25.7095 359.896 27.1971 358.177 28.4087C356.132 29.8879 354.041 30.3047 351.662 30.7374C351.121 30.8595 350.85 30.9295 350.85 30.9295C350.688 30.9284 350.581 30.8376 350.492 30.6569C350.404 30.4763 350.313 28.1355 350.255 23.617ZM351.654 24.4192C351.642 26.0212 351.739 27.5519 351.962 29.0476C354.628 28.8149 358.901 27.7839 358.926 24.418C358.94 22.4021 357.277 20.896 355.297 20.8816C354.055 20.8725 352.864 21.4039 351.722 22.4756C351.681 23.1234 351.658 23.7712 351.654 24.4192ZM363.147 26.1767C362.77 26.048 362.574 25.7406 362.578 25.2906C362.581 24.8766 362.781 24.59 363.124 24.4485C363.076 23.5122 363.048 22.5219 363.055 21.478C363.059 21.028 363.06 20.776 363.079 20.7401C363.117 20.4704 363.226 20.2732 363.425 20.1306C363.516 20.0593 363.75 19.971 364.129 19.8477C364.724 19.672 365.338 19.4965 365.933 19.3028C366.619 19.1098 367.231 19.0242 367.789 19.0283L368.383 19.0326C368.887 19.0183 369.229 19.0387 369.427 19.0942C369.966 19.2421 370.682 19.7873 370.677 20.3993C370.675 20.7053 370.386 20.8832 369.809 20.933C368.423 21.0489 367.54 21.1325 367.161 21.2018C366.422 21.3224 365.575 21.5863 364.618 21.9933C364.559 22.6409 364.536 23.3248 364.531 24.0267C366.731 23.3947 368.714 23.0851 370.496 23.0981C370.838 23.1005 371.108 23.1205 371.305 23.1579C371.719 23.1969 372.544 23.635 372.54 24.1029C372.539 24.3369 372.232 24.4967 371.601 24.5821C368.521 24.9018 366.177 25.3347 364.553 25.863C364.581 27.0332 364.681 28.1679 364.853 29.2672C365.717 29.2735 366.707 29.1727 367.843 28.9649L370.818 28.3385C370.998 28.3038 371.142 28.2869 371.25 28.2877C371.628 28.2904 371.825 28.4539 371.822 28.7778C371.807 30.8838 365.901 31.2189 364.515 31.2088C363.957 31.2048 363.58 31.058 363.402 30.7507C363.277 30.5518 363.198 29.0212 363.147 26.1767ZM276.451 45.2094C276.291 44.9742 276.221 44.7037 276.223 44.4337C276.226 43.9477 276.427 43.5891 276.842 43.3941C278.233 42.7382 280.035 42.4273 282.249 42.4434C282.915 42.4482 283.437 42.506 283.796 42.5987C284.371 42.7648 284.765 43.0557 284.959 43.5071C285.013 43.6335 285.048 43.7238 285.047 43.8138C285.046 43.9398 285.01 44.0295 284.955 44.1011C284.828 44.2442 284.521 44.332 283.999 44.3642C283.009 44.393 282.055 44.44 281.172 44.5236C281.092 45.6571 281.048 46.7188 281.041 47.7268C281.028 49.4727 281.125 51.0395 281.348 52.4451C281.469 53.238 281.538 53.6705 281.537 53.7245C281.534 54.1565 280.74 54.4028 280.38 54.4001C280.11 54.3982 279.949 54.307 279.86 54.1084C279.737 53.7655 279.651 50.6688 279.622 44.8184C279.189 44.9772 278.755 45.1361 278.322 45.277C277.691 45.5064 277.294 45.6115 277.096 45.6101C276.826 45.6081 276.611 45.4805 276.451 45.2094ZM286.544 48.4868C286.43 46.8119 286.387 45.3895 286.395 44.2556C286.4 43.5356 287.033 43.1262 287.699 43.131C288.113 43.134 288.31 43.2975 288.307 43.6215C288.307 43.6395 288.286 44.0353 288.227 44.8269C288.148 45.7444 288.105 46.7161 288.098 47.706C289.83 47.1606 291.56 46.8312 293.289 46.7537L293.289 44.2877C293.297 43.1717 293.517 42.5613 294.741 42.5702C295.317 42.5744 295.261 42.862 295.222 43.3117L295.107 44.2469C295.029 45.0383 294.969 45.8659 294.909 46.7475C295.142 46.8032 295.376 46.9129 295.591 47.0765C295.859 47.2764 296.002 47.4755 296 47.6735C295.998 47.9974 295.619 48.1567 294.881 48.1513C294.869 49.7713 294.914 51.0137 295.015 51.8964C295.121 52.2212 295.206 52.8878 295.204 53.2298C295.201 53.6798 294.568 53.9812 294.082 53.9777C293.182 53.9711 293.426 52.6229 293.435 51.4169C293.438 51.0209 293.423 50.5168 293.392 49.8866C293.362 49.0403 293.348 48.5362 293.331 48.3381C291.403 48.5941 289.654 48.9954 288.12 49.5423C288.184 50.7487 288.267 51.7214 288.369 52.4601C288.507 53.3072 288.576 53.7757 288.575 53.8657C288.572 54.2797 287.76 54.5438 287.418 54.5413C287.148 54.5393 286.987 54.4481 286.916 54.2496C286.863 54.0872 286.829 53.835 286.814 53.4929L286.819 52.7009C286.74 51.2963 286.642 49.8915 286.544 48.4868ZM303.083 54.7451C299.879 54.7218 297.323 52.2912 297.347 49.0513C297.374 45.2894 300.798 42.3082 304.47 42.3348C307.673 42.3581 310.248 44.7709 310.224 48.0288C310.197 51.7907 306.755 54.7718 303.083 54.7451ZM303.703 43.8233C301.147 43.8047 299.33 46.1676 299.312 48.5975C299.294 51.0815 301.131 53.4169 303.723 53.4357C306.279 53.4543 308.114 51.0916 308.132 48.6616C308.15 46.1597 306.313 43.8423 303.703 43.8233ZM312.134 48.8527C312.074 47.2502 312.047 45.972 312.054 45.036C312.059 44.316 312.117 43.8304 312.226 43.5792C312.427 43.1847 312.843 42.9897 313.491 42.9944C313.869 42.9972 314.048 43.1245 314.046 43.3945C314.046 43.3585 313.988 43.862 313.873 44.8872C313.739 46.0203 313.655 47.6037 313.64 49.6737C313.629 51.2396 313.695 52.0861 313.856 52.2313C313.909 52.2677 313.999 52.2863 314.125 52.2873C315.169 52.2949 318.275 50.9134 319.323 50.381C319.231 48.2203 319.19 46.4379 319.2 45.0339C319.207 44.026 319.251 43.0183 320.547 43.0277C320.997 43.0309 321.212 43.1765 321.21 43.4465C321.207 43.8245 321.09 45.0657 320.98 45.3709C320.882 46.4682 320.819 47.7098 320.808 49.1317C320.801 50.1217 320.866 51.1482 320.984 52.2111C321.085 53.1119 321.136 53.5982 321.135 53.6882C321.132 54.1382 320.5 54.4396 320.014 54.4361C319.726 54.434 319.547 54.3247 319.458 54.1261C319.441 54.0539 319.409 53.4417 319.381 52.2715C317.99 53.0534 314.542 54.3783 312.994 54.3671C312.49 54.3634 312.24 54.0916 312.244 53.5336C312.255 51.9677 312.195 50.4192 312.134 48.8527ZM326.571 54.7898C324.105 54.7718 322.948 52.9094 322.965 50.6234C322.998 46.0876 327.143 42.8776 331.481 42.9091C331.895 42.9121 332.146 42.986 332.271 43.1309C332.325 43.2213 332.359 43.4735 332.356 43.9235C332.354 44.1215 332.406 44.3919 332.512 44.7347C332.617 45.0954 332.669 45.3658 332.668 45.5638C332.665 45.9778 331.779 46.4754 331.419 46.4728C331.239 46.4715 331.079 46.2543 330.938 45.8212C330.92 45.7311 330.851 45.4246 330.728 44.9197C328.836 45.212 327.319 45.867 326.214 46.903C325.307 47.7784 324.307 49.2472 324.297 50.5431C324.287 51.9831 325.522 52.8921 326.89 52.902C328.528 52.9139 331.488 51.8734 332.631 50.6757C332.866 50.4434 332.976 50.2462 332.977 50.1202C332.979 49.7782 332.566 49.5952 331.756 49.5893C330.28 49.5786 328.406 49.961 326.945 50.3104C326.548 50.3975 326.242 50.4313 326.026 50.4297C325.756 50.4277 325.613 50.2827 325.615 50.0127C325.619 49.4907 326.218 48.865 326.651 48.6342C327.41 48.2257 330.22 48.0301 331.174 48.037C333.478 48.0538 334.626 48.5301 334.619 49.4661C334.614 50.1861 333.978 51.0455 332.729 52.0624C330.429 53.8998 328.388 54.803 326.571 54.7898ZM336.605 48.8505C336.491 47.1756 336.448 45.7533 336.456 44.6193C336.461 43.8993 337.094 43.4899 337.76 43.4948C338.174 43.4978 338.371 43.6612 338.369 43.9852C338.368 44.0032 338.348 44.399 338.288 45.1906C338.209 46.1081 338.166 47.0798 338.159 48.0698C339.891 47.5243 341.621 47.1949 343.35 47.1175L343.35 44.6514C343.358 43.5354 343.578 42.925 344.802 42.9339C345.378 42.9381 345.322 43.2257 345.283 43.6754L345.168 44.6106C345.09 45.4021 345.03 46.2296 344.97 47.1112C345.204 47.1669 345.437 47.2766 345.652 47.4402C345.92 47.6401 346.063 47.8392 346.061 48.0372C346.059 48.3612 345.68 48.5204 344.942 48.5151C344.93 50.135 344.975 51.3774 345.077 52.2601C345.182 52.5849 345.267 53.2516 345.265 53.5935C345.262 54.0435 344.63 54.3449 344.144 54.3414C343.244 54.3349 343.487 52.9866 343.496 51.7806C343.499 51.3847 343.485 50.8805 343.453 50.2503C343.423 49.4041 343.409 48.8999 343.392 48.7018C341.465 48.9578 339.716 49.3591 338.182 49.906C338.245 51.1125 338.328 52.0851 338.43 52.8239C338.568 53.6709 338.637 54.1394 338.636 54.2294C338.633 54.6434 337.821 54.9075 337.479 54.905C337.209 54.9031 337.048 54.8119 336.977 54.6134C336.925 54.451 336.89 54.1987 336.875 53.8566L336.881 53.0646C336.801 51.66 336.703 50.2553 336.605 48.8505Z" fill="black"/>
<path d="M39.0141 30.1307C38.8538 29.8956 38.7838 29.6251 38.7857 29.3551C38.7892 28.8691 38.9899 28.5105 39.4053 28.3155C40.7961 27.6596 42.5984 27.3487 44.8123 27.3648C45.4783 27.3696 45.9999 27.4274 46.3592 27.52C46.9341 27.6862 47.328 27.9771 47.5227 28.4285C47.5758 28.5549 47.6111 28.6452 47.6105 28.7352C47.6095 28.8612 47.5729 28.9509 47.5184 29.0225C47.3913 29.1656 47.0847 29.2534 46.5624 29.2856C45.5722 29.3144 44.6178 29.3614 43.7352 29.445C43.655 30.5785 43.6112 31.6402 43.6039 32.6482C43.5912 34.3941 43.6878 35.9609 43.9116 37.3665C44.0319 38.1594 44.1007 38.5919 44.1004 38.6459C44.0972 39.0779 43.3034 39.3241 42.9434 39.3215C42.6734 39.3196 42.5121 39.2284 42.4235 39.0297C42.3 38.6868 42.2145 35.5901 42.185 29.7398C41.7518 29.8986 41.3187 30.0575 40.8856 30.1983C40.254 30.4278 39.8572 30.5329 39.6592 30.5314C39.3892 30.5295 39.1741 30.4019 39.0141 30.1307ZM49.1072 33.4082C48.9934 31.7333 48.9497 30.3109 48.958 29.177C48.9632 28.457 49.5962 28.0476 50.2622 28.0524C50.6762 28.0554 50.873 28.2189 50.8706 28.5428C50.8705 28.5608 50.8496 28.9567 50.7899 29.7483C50.7112 30.6657 50.6681 31.6375 50.661 32.6274C52.393 32.082 54.1234 31.7526 55.852 31.6751L55.8519 29.2091C55.86 28.0931 56.0805 27.4827 57.3044 27.4916C57.8804 27.4957 57.8243 27.7833 57.7851 28.2331L57.6703 29.1683C57.5925 29.9597 57.5325 30.7873 57.4721 31.6689C57.7057 31.7246 57.9389 31.8343 58.1537 31.9979C58.4223 32.1978 58.5648 32.3968 58.5634 32.5948C58.561 32.9188 58.1819 33.0781 57.4439 33.0727C57.4321 34.6927 57.4771 35.935 57.5787 36.8178C57.6843 37.1426 57.7695 37.8092 57.767 38.1512C57.7637 38.6012 57.1315 38.9026 56.6455 38.8991C55.7456 38.8925 55.9894 37.5443 55.9981 36.3383C56.001 35.9423 55.9867 35.4382 55.9553 34.808C55.9254 33.9617 55.9111 33.4576 55.8945 33.2595C53.9666 33.5155 52.2176 33.9168 50.6836 34.4636C50.7468 35.6701 50.8298 36.6428 50.9324 37.3815C51.0703 38.2286 51.1389 38.6971 51.1382 38.7871C51.1352 39.201 50.3233 39.4652 49.9813 39.4627C49.7113 39.4607 49.5499 39.3695 49.4794 39.171C49.4266 39.0086 49.3924 38.7564 49.3769 38.4143L49.3826 37.6223C49.3028 36.2177 49.205 34.8129 49.1072 33.4082ZM60.481 34.6248C60.104 34.4961 59.9082 34.1887 59.9115 33.7387C59.9145 33.3247 60.1145 33.0381 60.4576 32.8966C60.4104 31.9602 60.3816 30.97 60.3892 29.926C60.3924 29.476 60.3943 29.2241 60.4125 29.1882C60.4505 28.9185 60.5599 28.7212 60.759 28.5787C60.8495 28.5073 61.0841 28.419 61.463 28.2958C62.0583 28.1201 62.6716 27.9446 63.267 27.7509C63.9525 27.5579 64.5651 27.4723 65.1231 27.4764L65.7171 27.4807C66.2212 27.4663 66.5631 27.4868 66.7607 27.5423C67.2996 27.6902 68.0157 28.2354 68.0112 28.8474C68.009 29.1534 67.7197 29.3313 67.1433 29.3811C65.7564 29.497 64.8738 29.5806 64.4953 29.6499C63.7564 29.7705 62.9084 30.0343 61.9515 30.4414C61.8928 31.089 61.8698 31.7728 61.8647 32.4748C64.0653 31.8428 66.0476 31.5332 67.8296 31.5461C68.1716 31.5486 68.4414 31.5686 68.6392 31.606C69.0529 31.645 69.8777 32.083 69.8743 32.551C69.8726 32.785 69.5655 32.9448 68.9348 33.0302C65.8544 33.3498 63.5112 33.7828 61.8873 34.311C61.9148 35.4813 62.0146 36.616 62.1866 37.7153C63.0506 37.7216 64.0414 37.6208 65.1769 37.413L68.1515 36.7866C68.3318 36.7519 68.4759 36.735 68.5839 36.7358C68.9619 36.7385 69.1587 36.9019 69.1564 37.2259C69.1411 39.3319 63.2345 39.667 61.8485 39.6569C61.2905 39.6528 60.9136 39.5061 60.7358 39.1988C60.6112 38.9999 60.5324 37.4693 60.481 34.6248ZM71.6883 31.4302C71.69 31.1962 71.818 30.9271 72.0542 30.6228C73.6707 28.6365 75.4598 27.6595 77.4217 27.6737C79.5457 27.6892 81.6778 29.0547 81.6611 31.3586C81.6398 34.2925 78.0659 35.6346 75.6862 36.1393C77.0664 36.9414 78.2326 37.4719 79.1849 37.7128C79.3107 37.7317 79.4725 37.7689 79.6881 37.8245C79.8854 37.9159 79.9926 38.0247 79.9914 38.1867C79.9892 38.4927 79.5909 38.8138 79.2309 38.8112C77.8809 38.8014 75.2774 37.9004 74.076 37.2617C74.0928 37.4238 74.1269 37.6941 74.2141 38.0727C74.2836 38.4152 74.3175 38.7035 74.3161 38.9015C74.3124 39.4054 73.627 39.5985 73.231 39.5956C72.943 39.5935 72.7457 39.5021 72.6571 39.3034C72.5328 39.0685 72.4414 36.7818 72.419 32.4435C72.0056 32.3505 71.6853 31.8442 71.6883 31.4302ZM73.8696 30.978C73.8475 31.5539 73.8251 32.1477 73.8208 32.7417C73.8157 33.4437 73.8288 34.1278 73.8597 34.83C76.5781 34.7778 78.3455 34.3226 79.1618 33.4465C79.7243 32.8386 79.9987 32.2286 80.003 31.6346C80.0135 30.1946 78.2732 29.408 77.0312 29.3989C76.0052 29.3915 74.9573 29.9239 73.8696 30.978ZM84.0175 34.7958C83.6404 34.6671 83.4447 34.3597 83.4479 33.9097C83.4509 33.4957 83.651 33.2091 83.9941 33.0676C83.9469 32.1313 83.9181 31.141 83.9257 30.097C83.9289 29.6471 83.9308 29.3951 83.949 29.3592C83.987 29.0895 84.0964 28.8923 84.2955 28.7497C84.386 28.6784 84.6206 28.5901 84.9995 28.4668C85.5948 28.2911 86.2081 28.1156 86.8035 27.9219C87.489 27.7289 88.1016 27.6433 88.6596 27.6474L89.2536 27.6517C89.7577 27.6374 90.0995 27.6578 90.2971 27.7133C90.8361 27.8612 91.5521 28.4064 91.5477 29.0184C91.5455 29.3244 91.2562 29.5023 90.6798 29.5521C89.2929 29.668 88.4103 29.7516 88.0318 29.8209C87.2929 29.9415 86.4449 30.2054 85.488 30.6124C85.4292 31.26 85.4063 31.9439 85.4012 32.6458C87.6018 32.0138 89.5841 31.7042 91.3661 31.7171C91.7081 31.7196 91.9779 31.7396 92.1757 31.777C92.5894 31.816 93.4142 32.254 93.4108 32.722C93.4091 32.956 93.102 33.1158 92.4713 33.2012C89.3909 33.5208 87.0477 33.9538 85.4238 34.482C85.4513 35.6523 85.5511 36.787 85.7231 37.8863C86.5871 37.8926 87.5778 37.7918 88.7134 37.584L91.688 36.9576C91.8683 36.9229 92.0124 36.906 92.1204 36.9068C92.4984 36.9095 92.6952 37.0729 92.6928 37.3969C92.6775 39.5029 86.771 39.838 85.385 39.8279C84.827 39.8239 84.4501 39.6771 84.2723 39.3698C84.1477 39.1709 84.0689 37.6403 84.0175 34.7958ZM95.2316 30.6652C95.2326 30.5212 95.3062 30.3057 95.4524 30.0008C95.5986 29.6958 95.8184 29.1754 96.0939 28.4214C96.351 27.7213 96.5888 27.201 96.7894 26.8424C96.9355 26.5555 97.1885 26.4133 97.5305 26.4158C97.9085 26.4185 98.5008 26.6569 98.4975 27.1068C98.4956 27.3768 96.8707 30.5151 96.5797 30.927C96.416 31.1598 96.2171 31.2844 96.0191 31.2829C95.8211 31.2815 95.6415 31.2262 95.4983 31.1172C95.3191 31.0078 95.2302 30.8632 95.2316 30.6652ZM100.235 36.4437C100.238 36.0117 100.347 35.7965 100.581 35.7982C101.067 35.8017 101.458 36.5246 101.653 36.904C102.277 37.7366 103.318 38.1582 104.776 38.1688C106.414 38.1807 108.291 37.5283 108.951 35.895C109.061 35.6258 109.116 35.4102 109.118 35.2482C109.12 34.9782 108.959 34.797 108.654 34.6688C107.9 34.3753 106.749 34.187 105.184 34.0856C103.978 34.0228 102.755 33.96 101.549 33.8972C100.704 33.819 100.4 33.4928 100.406 32.6469C100.41 32.1429 100.829 31.4259 101.646 30.5138C103.424 28.5287 105.646 27.5368 108.291 27.556C108.921 27.5606 109.119 27.634 109.169 28.1924C109.186 28.3185 109.238 28.5889 109.325 28.9856C109.395 29.3281 109.429 29.5983 109.427 29.7963C109.424 30.2463 108.538 30.7259 108.142 30.723C107.944 30.7216 107.731 30.342 107.539 29.5846C107.395 29.5655 107.233 29.5644 107.071 29.5632C105.325 29.5505 103.934 30.2064 102.88 31.5308C102.699 31.7635 102.608 31.9068 102.607 31.9968C102.606 32.1768 106.205 32.221 107.627 32.3573C109.318 32.4956 110.396 32.6654 110.845 32.8307C111.186 32.9592 111.346 33.3024 111.341 33.8963C111.34 34.1483 111.302 34.3641 111.247 34.5257C110.252 37.7225 106.636 39.8203 103.396 39.7968C102.766 39.7922 102.299 39.6988 101.977 39.4984C101.027 38.9335 100.227 37.5417 100.235 36.4437ZM120.597 40.1737C120.039 40.1697 119.487 39.3377 119.491 38.8157C119.492 38.6717 119.62 38.4026 119.874 38.0084C120.038 37.7396 120.22 37.4709 120.402 37.2023C121.077 36.0731 121.753 34.674 122.413 33.0048L124.065 28.6426C124.266 28.1581 124.628 27.9087 125.168 27.9126C125.42 27.9145 125.617 28.0419 125.759 28.2949C125.883 28.5299 126.007 28.8368 126.131 29.2157C126.324 29.8111 126.412 30.1357 126.43 30.1719C127.4 32.807 128.428 35.0825 129.53 36.9806C129.708 37.2519 129.886 37.5232 130.046 37.7943C130.277 38.21 130.401 38.4809 130.4 38.6069C130.397 39.1109 129.727 39.5921 129.259 39.5887C129.025 39.587 128.775 39.3331 128.509 38.8092C128.367 38.4482 128.226 38.0871 128.067 37.708C126.318 38.1093 124.119 38.5613 121.469 39.0281C121.139 39.7997 120.849 40.1756 120.597 40.1737ZM122.311 37.1441C124.149 36.8515 125.808 36.4495 127.306 35.9024C126.829 34.6929 126.068 32.8693 125.042 30.4498C124.621 31.3648 123.723 33.5903 122.311 37.1441ZM30.3796 57.2727C30.2658 55.5979 30.2221 54.1755 30.2304 53.0415C30.2356 52.3215 30.8686 51.9121 31.5346 51.917C31.9486 51.92 32.1454 52.0834 32.143 52.4074C32.1429 52.4254 32.122 52.8213 32.0623 53.6129C31.9836 54.5303 31.9406 55.502 31.9334 56.492C33.6654 55.9466 35.3958 55.6171 37.1244 55.5397L37.1243 53.0736C37.1324 51.9576 37.3529 51.3472 38.5769 51.3561C39.1528 51.3603 39.0967 51.6479 39.0575 52.0976L38.9427 53.0328C38.8649 53.8243 38.8049 54.6519 38.7445 55.5335C38.9781 55.5892 39.2113 55.6988 39.4261 55.8624C39.6947 56.0624 39.8372 56.2614 39.8358 56.4594C39.8335 56.7834 39.4543 56.9426 38.7163 56.9373C38.7045 58.5572 38.7495 59.7996 38.8511 60.6824C38.9567 61.0071 39.0419 61.6738 39.0394 62.0158C39.0361 62.4658 38.4039 62.7672 37.918 62.7636C37.018 62.7571 37.2618 61.4088 37.2705 60.2029C37.2734 59.8069 37.2591 59.3028 37.2277 58.6725C37.1978 57.8263 37.1835 57.3222 37.1669 57.124C35.239 57.38 33.49 57.7813 31.956 58.3282C32.0193 59.5347 32.1022 60.5073 32.2048 61.2461C32.3427 62.0931 32.4113 62.5616 32.4106 62.6516C32.4076 63.0656 31.5957 63.3297 31.2537 63.3272C30.9837 63.3253 30.8223 63.2341 30.7518 63.0356C30.699 62.8732 30.6648 62.6209 30.6493 62.2788L30.655 61.4868C30.5752 60.0822 30.4774 58.6775 30.3796 57.2727ZM41.8063 63.6019C41.2483 63.5979 40.6963 62.7658 40.7001 62.2438C40.7012 62.0998 40.8291 61.8308 41.084 61.4366C41.248 61.1678 41.4299 60.8991 41.6119 60.6304C42.2861 59.5013 42.9623 58.1022 43.6224 56.4329L45.2742 52.0708C45.4757 51.5863 45.8375 51.3369 46.3775 51.3408C46.6295 51.3426 46.8266 51.4701 46.9687 51.7231C47.093 51.958 47.2168 52.2649 47.3401 52.6438C47.5337 53.2393 47.6214 53.5639 47.6391 53.6C48.61 56.2352 49.6375 58.5107 50.7397 60.4087C50.9178 60.68 51.0958 60.9513 51.2558 61.2225C51.4868 61.6382 51.6109 61.9091 51.6099 62.0351C51.6063 62.5391 50.9368 63.0202 50.4688 63.0168C50.2348 63.0151 49.9846 62.7613 49.7184 62.2374C49.577 61.8763 49.4357 61.5153 49.2764 61.1361C47.5274 61.5374 45.3281 61.9895 42.6786 62.4562C42.349 63.2278 42.0583 63.6037 41.8063 63.6019ZM43.5203 60.5723C45.3585 60.2796 47.0175 59.8777 48.5155 59.3305C48.0383 58.121 47.2775 56.2975 46.2511 53.8779C45.8304 54.7929 44.9322 57.0185 43.5203 60.5723ZM56.5188 63.3848C54.1608 63.3677 52.9681 61.541 52.984 59.345C53.0172 54.7731 57.1092 51.4908 61.5191 51.5228C61.9691 51.5261 62.2385 51.6 62.3274 51.7627C62.3807 51.8531 62.3966 52.1412 62.3932 52.6092C62.392 52.7712 62.4442 53.0236 62.5498 53.3484C62.6555 53.6731 62.7078 53.9075 62.7066 54.0695C62.7028 54.5915 61.9072 55.0897 61.4392 55.0863C61.2412 55.0849 61.0808 54.8677 60.9578 54.4528C60.906 54.1464 60.8361 53.8579 60.7663 53.5514C58.6219 53.8778 56.9962 54.658 55.8529 55.9278C54.8547 57.0545 54.3429 58.1309 54.3354 59.1568C54.3242 60.7048 55.7581 61.5432 57.1621 61.5534C58.674 61.5644 60.4988 60.6416 61.818 59.9312C62.5227 59.5583 62.9201 59.3632 63.0101 59.3639C63.2441 59.3656 63.3504 59.6003 63.347 60.0683C63.3456 60.2663 63.2002 60.4633 62.9285 60.6953C62.6934 60.8376 62.4764 60.98 62.2592 61.1404C60.0702 62.6546 58.1567 63.3967 56.5188 63.3848ZM65.4462 62.9457C65.2862 62.6745 65.1824 54.6635 65.1909 53.4935C65.1941 53.0616 65.1959 52.8096 65.2144 52.7377C65.3445 52.1806 65.9229 51.8428 66.5529 51.8474C66.9669 51.8504 67.164 51.9778 67.162 52.2478C67.1594 52.6078 67.0612 53.7411 66.9509 54.0463C66.8531 55.1257 66.7906 56.2952 66.7813 57.5732C70.4963 54.1441 72.633 52.4136 73.12 52.2731C73.2824 52.2203 73.4445 52.2035 73.6425 52.2049C74.2185 52.2091 74.5053 52.3732 74.5029 52.6972C74.502 52.8232 74.3022 53.0737 73.8857 53.4127C73.7408 53.5377 72.744 54.4664 70.8777 56.1629C69.6996 57.2704 68.7752 58.1457 68.1226 58.771C69.8591 60.0976 71.705 61.2091 73.7332 62.0158C74.0382 62.1621 74.1992 62.2892 74.1985 62.3972C74.197 62.5952 73.9977 62.7738 73.6006 62.9329C73.2574 63.0924 72.9869 63.1624 72.7529 63.1607C72.5549 63.1593 71.5133 62.8277 69.6642 62.1483C68.5689 61.7623 67.6366 61.2515 66.8849 60.652C67.021 61.7511 67.0885 62.3636 67.0876 62.4896C67.0859 62.7236 66.9586 62.9026 66.7054 63.0628C66.4705 63.1871 66.2361 63.2394 66.0021 63.2377C65.7141 63.2356 65.5348 63.1443 65.4462 62.9457ZM76.8913 63.8568C76.3333 63.8528 75.7813 63.0207 75.7851 62.4988C75.7862 62.3548 75.9141 62.0857 76.169 61.6915C76.333 61.4227 76.5149 61.154 76.6969 60.8853C77.3711 59.7562 78.0473 58.3571 78.7074 56.6878L80.3592 52.3257C80.5607 51.8412 80.9225 51.5918 81.4625 51.5957C81.7145 51.5975 81.9116 51.725 82.0537 51.978C82.178 52.2129 82.3018 52.5198 82.4251 52.8987C82.6187 53.4942 82.7064 53.8188 82.7241 53.8549C83.695 56.4901 84.7225 58.7656 85.8247 60.6637C86.0028 60.935 86.1808 61.2063 86.3408 61.4774C86.5718 61.8931 86.6959 62.164 86.6949 62.29C86.6913 62.794 86.0218 63.2752 85.5538 63.2718C85.3198 63.2701 85.0696 63.0162 84.8034 62.4923C84.662 62.1312 84.5207 61.7702 84.3614 61.391C82.6125 61.7923 80.4131 62.2444 77.7637 62.7111C77.434 63.4828 77.1433 63.8587 76.8913 63.8568ZM78.6054 60.8272C80.4435 60.5346 82.1025 60.1326 83.6005 59.5855C83.1233 58.376 82.3625 56.5524 81.3361 54.1329C80.9154 55.0478 80.0172 57.2734 78.6054 60.8272ZM86.15 54.4739C85.9897 54.2387 85.9197 53.9682 85.9216 53.6982C85.9251 53.2122 86.1258 52.8536 86.5412 52.6586C87.932 52.0027 89.7343 51.6918 91.9482 51.7079C92.6142 51.7127 93.1358 51.7705 93.4951 51.8631C94.07 52.0293 94.4639 52.3202 94.6586 52.7716C94.7117 52.898 94.747 52.9883 94.7464 53.0783C94.7454 53.2043 94.7088 53.294 94.6543 53.3656C94.5272 53.5087 94.2206 53.5965 93.6983 53.6287C92.7081 53.6575 91.7537 53.7045 90.8711 53.7881C90.7909 54.9216 90.7471 55.9833 90.7398 56.9913C90.7271 58.7372 90.8237 60.304 91.0475 61.7096C91.1678 62.5025 91.2366 62.935 91.2363 62.989C91.2331 63.421 90.4393 63.6673 90.0793 63.6646C89.8093 63.6627 89.648 63.5715 89.5594 63.3729C89.4359 63.03 89.3504 59.9332 89.3209 54.0829C88.8877 54.2417 88.4546 54.4006 88.0215 54.5415C87.3899 54.7709 86.9931 54.876 86.7951 54.8745C86.5251 54.8726 86.31 54.745 86.15 54.4739ZM96.2431 57.7513C96.1293 56.0764 96.0856 54.654 96.0939 53.5201C96.0991 52.8001 96.7321 52.3907 97.3981 52.3955C97.8121 52.3985 98.0089 52.562 98.0065 52.886C98.0064 52.904 97.9855 53.2998 97.9258 54.0914C97.8471 55.0089 97.804 55.9806 97.7969 56.9705C99.5289 56.4251 101.259 56.0957 102.988 56.0182L102.988 53.5522C102.996 52.4362 103.216 51.8258 104.44 51.8347C105.016 51.8389 104.96 52.1265 104.921 52.5762L104.806 53.5114C104.728 54.3028 104.668 55.1304 104.608 56.012C104.842 56.0677 105.075 56.1774 105.29 56.341C105.558 56.5409 105.701 56.74 105.699 56.938C105.697 57.2619 105.318 57.4212 104.58 57.4158C104.568 59.0358 104.613 60.2781 104.715 61.1609C104.82 61.4857 104.905 62.1523 104.903 62.4943C104.9 62.9443 104.267 63.2457 103.781 63.2422C102.881 63.2356 103.125 61.8874 103.134 60.6814C103.137 60.2854 103.123 59.7813 103.091 59.1511C103.061 58.3048 103.047 57.8007 103.03 57.6026C101.102 57.8586 99.3535 58.2599 97.8195 58.8068C97.8828 60.0132 97.9657 60.9859 98.0683 61.7246C98.2062 62.5717 98.2748 63.0402 98.2741 63.1302C98.2711 63.5442 97.4592 63.8083 97.1172 63.8058C96.8472 63.8038 96.6858 63.7126 96.6153 63.5141C96.5625 63.3517 96.5283 63.0995 96.5128 62.7574L96.5185 61.9654C96.4387 60.5608 96.3409 59.156 96.2431 57.7513ZM112.782 64.0096C109.579 63.9863 107.022 61.5557 107.046 58.3158C107.073 54.5539 110.497 51.5727 114.169 51.5993C117.373 51.6226 119.947 54.0354 119.923 57.2933C119.896 61.0552 116.454 64.0363 112.782 64.0096ZM113.402 53.0878C110.846 53.0692 109.029 55.4321 109.011 57.862C108.993 60.346 110.83 62.6814 113.422 62.7002C115.978 62.7188 117.813 60.3561 117.831 57.9261C117.849 55.4242 116.012 53.1068 113.402 53.0878ZM121.747 55.0565C121.753 54.2285 121.793 53.7248 121.866 53.5453C122.032 53.0965 122.465 52.8837 123.149 52.8886C123.401 52.8905 123.581 52.9638 123.688 53.0905L129.756 60.2448C129.878 58.3557 129.964 56.4482 130.031 54.5587C130.091 53.8211 130.149 53.1915 130.225 52.67C130.301 52.1126 130.699 51.8275 131.437 51.8328C131.779 51.8353 131.94 52.0165 131.937 52.3765C131.937 52.4485 131.899 52.7182 131.805 53.1675C131.413 55.1267 131.218 57.2134 131.202 59.4633C131.196 60.3093 131.208 61.0294 131.258 61.6058C131.328 61.9663 131.378 62.3807 131.376 62.7407C131.372 63.3346 130.973 63.6378 130.163 63.6319C129.821 63.6294 129.483 63.1769 129.215 62.797L123.449 56.1849C123.389 57.0845 123.346 57.9482 123.341 58.7582C123.33 60.2161 123.393 61.4406 123.512 62.4135C123.618 62.7383 123.668 63.1887 123.666 63.5307C123.662 64.0166 122.958 64.2815 122.544 64.2785C122.256 64.2764 122.077 64.1671 121.989 63.9505C121.918 63.806 121.74 56.0645 121.747 55.0565ZM135.067 60.2654C134.581 60.2619 134.33 60.1161 134.332 59.8281C134.333 59.6661 134.37 59.4683 134.426 59.2167C134.537 58.8395 134.592 58.6419 134.611 58.6061C134.817 57.4735 135.041 56.3231 135.266 55.1907C135.583 53.609 135.897 52.5492 136.207 51.9935C136.371 51.7067 136.75 51.5654 137.362 51.5699C137.704 51.5723 138.694 51.6155 138.69 52.1015L137.776 54.0389C137.392 54.8642 136.972 55.6891 136.588 56.5144C136.076 57.6447 135.798 58.6687 135.699 59.892C135.608 60.1433 135.409 60.2679 135.067 60.2654ZM133.655 63.7832C133.661 63.0093 133.701 62.4155 133.776 62.0201C133.814 61.7863 134.138 61.6627 134.732 61.667C135.254 61.6708 135.506 61.7446 135.505 61.9066C135.503 62.1766 135.168 63.6322 135.058 63.8834C134.949 64.0987 134.696 64.2048 134.3 64.2019C133.868 64.1988 133.653 64.0532 133.655 63.7832Z" fill="#3E71F4"/>
</g>
<defs>
<clipPath id="clip0_3_211">
<rect width="386" height="171" fill="white"/>
</clipPath>
</defs>
</svg>
