<svg width="600" height="171" viewBox="0 0 600 171" fill="none" xmlns="http://www.w3.org/2000/svg">
<rect width="600" height="171" fill="white"/>
<path d="M596.146 2.30612L475.034 2.94067L421.659 2.30612L211.749 2.55872L141.169 2L76.8224 2.30612H3.10879V46.44V66.7991V81.7292L4.28504 92.788L3.10879 95.5518L3.69994 97.3169L3.10879 168.848H132.792L138.74 169L311.661 168.848L533.8 168.942L596.146 168.848V144.842V83.7651L596.891 43.2297L596.146 22.6709V2.30612Z" stroke="black" stroke-width="2" stroke-linejoin="round"/>
<path d="M447.064 38.4531C462.662 38.4531 478.066 38.525 493.961 38.525C500.786 38.525 506.986 38.4531 513.835 38.4531C518.278 38.4531 522.72 38.1438 527.163 38.1438C531.951 38.1438 537.687 38.3866 542.4 38" stroke="black" stroke-width="2" stroke-linecap="round" stroke-linejoin="round"/>
<path d="M446.463 38.453C446.962 46.8456 447.167 54.3216 447.167 62.6189C447.167 70.8498 447.383 78.5425 447.383 87.4752C447.383 102.868 448.267 120.476 448.267 135.829" stroke="black" stroke-width="2" stroke-linecap="round" stroke-linejoin="round"/>
<path d="M448.267 135.735C457.371 135.735 466.13 135.667 475.924 135.807C484.113 136.329 491.763 134.807 500.113 134.807C504.021 134.807 508.391 135.82 512.299 135.82C516.081 135.82 522.069 135.667 526.429 135.667C533.806 135.82 540.243 135.667 544.024 135.667" stroke="black" stroke-width="2" stroke-linecap="round" stroke-linejoin="round"/>
<path d="M542.356 38C542.356 46.4168 543.263 53.324 543.263 61.5833C543.263 70.5592 543.263 79.5351 543.263 88.5109C543.263 104.923 543.865 119.642 543.865 135.82" stroke="black" stroke-width="2" stroke-linecap="round" stroke-linejoin="round"/>
<path d="M545 113.49C543.626 88.6542 544.105 62.7197 544.105 38" stroke="black" stroke-linecap="round" stroke-linejoin="round"/>
<path d="M445.976 113.49C444.602 88.6542 445.081 62.7197 445.081 38" stroke="black" stroke-width="0.5" stroke-linecap="round" stroke-linejoin="round"/>
<path d="M447.439 138C446.065 113.164 446.544 87.2294 446.544 62.5098" stroke="black" stroke-linecap="round" stroke-linejoin="round"/>
<path d="M55 127.5C69.3657 127.761 71.9179 128.52 88 128.52C95.6175 127.995 114.158 129.796 123 129.286C129.072 129.286 128.02 128.299 134 128.52C135.776 128.586 145.5 129.286 149.578 129.286C153.656 129.286 158 128.52 163 128.52" stroke="black" stroke-width="2" stroke-linecap="round" stroke-linejoin="round"/>
<path d="M54.5 129.5C68.8657 129.761 75.5 129.5 91.5 130C99.1175 129.475 113.658 131.031 122.5 130.52C128.572 130.52 128.02 130.299 134 130.52C135.776 130.586 145.422 130 149.5 130C153.578 130 157.5 130.52 162.5 130.52" stroke="black" stroke-width="0.5" stroke-linecap="round" stroke-linejoin="round"/>
<path d="M109 34C105.738 41.7927 100.107 47.5909 97 55.5C93.6585 59.672 90.116 67.7418 87 73C82.1931 81.1117 77.6069 87.5446 73.5 96C70.2104 102.773 68.8691 103.885 63.5 115C61.5677 119 57.5 124.5 55.5 128.5" stroke="black" stroke-width="2" stroke-linecap="round" stroke-linejoin="round"/>
<path d="M109 36C105.738 43.7927 103.607 44.0909 100.5 52C97.1585 56.172 92.116 66.2418 89 71.5C84.1931 79.6117 80.6069 86.0446 76.5 94.5C73.2104 101.273 69.3691 104.885 64 116C62.0677 120 60.5 123 58.5 127" stroke="black" stroke-width="0.5" stroke-linecap="round" stroke-linejoin="round"/>
<path d="M109 34C112.073 39.2858 116.838 47.2915 120 52.5C122.425 56.4934 124.776 60.4019 126.853 64.5555C129.051 68.9528 130.443 71.3159 133 75.5C134.5 80.5 137.378 83.1205 139.5 88C140.505 90.3106 143.52 96.6469 144.964 98.7094C146.105 100.338 147.832 102.983 148.422 104.86C149.409 108 153.118 111.978 154.5 116C158.166 120.952 157.925 124.425 162 128.5" stroke="black" stroke-width="2" stroke-linecap="round" stroke-linejoin="round"/>
<path d="M110.5 34.5C113.573 39.7858 117.338 46.7915 120.5 52C122.925 55.9934 123.923 60.8464 126 65C128.199 69.3973 128.443 71.3159 131 75.5C132.5 80.5 137.878 83.1205 140 88C141.5 90 144 93 145.964 97.7094C147.105 99.3384 148.413 102.171 149.422 103.86C151 106.5 152.618 107.978 154 112C157.5 117.5 159.5 122 162.5 128" stroke="black" stroke-width="0.5" stroke-linecap="round" stroke-linejoin="round"/>
<path d="M354 35.8777C339.634 35.6165 337.082 34.8573 321 34.8573C313.382 35.3827 294.842 33.5819 286 34.092C279.928 34.092 280.98 35.0788 275 34.8573C273.224 34.7915 263.5 34.092 259.422 34.092C255.344 34.092 251 34.8573 246 34.8573" stroke="black" stroke-width="2" stroke-linecap="round" stroke-linejoin="round"/>
<path d="M354.5 33.8777C340.134 33.6165 333.5 33.8777 317.5 33.3777C309.882 33.903 295.342 32.3471 286.5 32.8573C280.428 32.8573 280.98 33.0788 275 32.8573C273.224 32.7915 263.578 33.3777 259.5 33.3777C255.422 33.3777 251.5 32.8573 246.5 32.8573" stroke="black" stroke-width="0.5" stroke-linecap="round" stroke-linejoin="round"/>
<path d="M300 129.378C303.262 121.585 308.893 115.787 312 107.878C315.341 103.706 318.884 95.6359 322 90.3777C326.807 82.266 331.393 75.8331 335.5 67.3777C338.79 60.605 340.131 59.4922 345.5 48.3777C347.432 44.3777 351.5 38.8777 353.5 34.8777" stroke="black" stroke-width="2" stroke-linecap="round" stroke-linejoin="round"/>
<path d="M300 127.378C303.262 119.585 305.393 119.287 308.5 111.378C311.841 107.206 316.884 97.1359 320 91.8777C324.807 83.766 328.393 77.3331 332.5 68.8777C335.79 62.105 339.631 58.4922 345 47.3777C346.932 43.3777 348.5 40.3777 350.5 36.3777" stroke="black" stroke-width="0.5" stroke-linecap="round" stroke-linejoin="round"/>
<path d="M300 129.378C296.927 124.092 292.162 116.086 289 110.878C286.575 106.884 284.224 102.976 282.147 98.8221C279.949 94.4249 278.557 92.0618 276 87.8777C274.5 82.8777 271.622 80.2571 269.5 75.3777C268.495 73.0671 265.48 66.7308 264.036 64.6683C262.895 63.0393 261.168 60.3943 260.578 58.5177C259.591 55.3777 255.882 51.3995 254.5 47.3777C250.834 42.4253 251.075 38.9522 247 34.8777" stroke="black" stroke-width="2" stroke-linecap="round" stroke-linejoin="round"/>
<path d="M298.5 128.878C295.427 123.592 291.662 116.586 288.5 111.378C286.075 107.384 285.077 102.531 283 98.3777C280.801 93.9804 280.557 92.0618 278 87.8777C276.5 82.8777 271.122 80.2571 269 75.3777C267.5 73.3777 265 70.3777 263.036 65.6683C261.895 64.0393 260.587 61.2062 259.578 59.5177C258 56.8777 256.382 55.3995 255 51.3777C251.5 45.8777 249.5 41.3777 246.5 35.3777" stroke="black" stroke-width="0.5" stroke-linecap="round" stroke-linejoin="round"/>
</svg>
