<svg width="600" height="195" viewBox="0 0 600 195" fill="none" xmlns="http://www.w3.org/2000/svg">
<rect width="600" height="195" fill="white"/>
<path d="M596.146 24.3061L475.034 24.9407L421.659 24.3061L211.749 24.5587L141.169 24L76.8224 24.3061H3.10879V68.44V88.7991V103.729L4.28504 114.788L3.10879 117.552L3.69994 119.317L3.10879 190.848H132.792L138.74 191L311.661 190.848L533.8 190.942L596.146 190.848V166.842V105.765L596.891 65.2297L596.146 44.6709V24.3061Z" stroke="black" stroke-width="2" stroke-linejoin="round"/>
<path d="M447.064 60.4531C462.662 60.4531 478.066 60.525 493.961 60.525C500.786 60.525 506.986 60.4531 513.835 60.4531C518.278 60.4531 522.72 60.1438 527.163 60.1438C531.951 60.1438 537.687 60.3866 542.4 60" stroke="black" stroke-width="2" stroke-linecap="round" stroke-linejoin="round"/>
<path d="M446.463 60.453C446.962 68.8456 447.167 76.3216 447.167 84.6189C447.167 92.8498 447.383 100.543 447.383 109.475C447.383 124.868 448.267 142.476 448.267 157.829" stroke="black" stroke-width="2" stroke-linecap="round" stroke-linejoin="round"/>
<path d="M448.267 157.735C457.371 157.735 466.13 157.667 475.924 157.807C484.113 158.329 491.763 156.807 500.113 156.807C504.021 156.807 508.391 157.82 512.299 157.82C516.081 157.82 522.069 157.667 526.429 157.667C533.806 157.82 540.243 157.667 544.024 157.667" stroke="black" stroke-width="2" stroke-linecap="round" stroke-linejoin="round"/>
<path d="M542.356 60C542.356 68.4168 543.263 75.324 543.263 83.5833C543.263 92.5592 543.263 101.535 543.263 110.511C543.263 126.923 543.865 141.642 543.865 157.82" stroke="black" stroke-width="2" stroke-linecap="round" stroke-linejoin="round"/>
<path d="M545 135.49C543.626 110.654 544.105 84.7197 544.105 60" stroke="black" stroke-linecap="round" stroke-linejoin="round"/>
<path d="M445.976 135.49C444.602 110.654 445.081 84.7197 445.081 60" stroke="black" stroke-width="0.5" stroke-linecap="round" stroke-linejoin="round"/>
<path d="M447.439 160C446.065 135.164 446.544 109.229 446.544 84.5098" stroke="black" stroke-linecap="round" stroke-linejoin="round"/>
<path d="M55 149.5C69.3657 149.761 71.9179 150.52 88 150.52C95.6175 149.995 114.158 151.796 123 151.286C129.072 151.286 128.02 150.299 134 150.52C135.776 150.586 145.5 151.286 149.578 151.286C153.656 151.286 158 150.52 163 150.52" stroke="black" stroke-width="2" stroke-linecap="round" stroke-linejoin="round"/>
<path d="M54.5 151.5C68.8657 151.761 75.5 151.5 91.5 152C99.1175 151.475 113.658 153.031 122.5 152.52C128.572 152.52 128.02 152.299 134 152.52C135.776 152.586 145.422 152 149.5 152C153.578 152 157.5 152.52 162.5 152.52" stroke="black" stroke-width="0.5" stroke-linecap="round" stroke-linejoin="round"/>
<path d="M109 56C105.738 63.7927 100.107 69.5909 97 77.5C93.6585 81.672 90.116 89.7418 87 95C82.1931 103.112 77.6069 109.545 73.5 118C70.2104 124.773 68.8691 125.885 63.5 137C61.5677 141 57.5 146.5 55.5 150.5" stroke="black" stroke-width="2" stroke-linecap="round" stroke-linejoin="round"/>
<path d="M109 58C105.738 65.7927 103.607 66.0909 100.5 74C97.1585 78.172 92.116 88.2418 89 93.5C84.1931 101.612 80.6069 108.045 76.5 116.5C73.2104 123.273 69.3691 126.885 64 138C62.0677 142 60.5 145 58.5 149" stroke="black" stroke-width="0.5" stroke-linecap="round" stroke-linejoin="round"/>
<path d="M109 56C112.073 61.2858 116.838 69.2915 120 74.5C122.425 78.4934 124.776 82.4019 126.853 86.5555C129.051 90.9528 130.443 93.3159 133 97.5C134.5 102.5 137.378 105.121 139.5 110C140.505 112.311 143.52 118.647 144.964 120.709C146.105 122.338 147.832 124.983 148.422 126.86C149.409 130 153.118 133.978 154.5 138C158.166 142.952 157.925 146.425 162 150.5" stroke="black" stroke-width="2" stroke-linecap="round" stroke-linejoin="round"/>
<path d="M110.5 56.5C113.573 61.7858 117.338 68.7915 120.5 74C122.925 77.9934 123.923 82.8464 126 87C128.199 91.3973 128.443 93.3159 131 97.5C132.5 102.5 137.878 105.121 140 110C141.5 112 144 115 145.964 119.709C147.105 121.338 148.413 124.171 149.422 125.86C151 128.5 152.618 129.978 154 134C157.5 139.5 159.5 144 162.5 150" stroke="black" stroke-width="0.5" stroke-linecap="round" stroke-linejoin="round"/>
<path d="M354 57.8777C339.634 57.6165 337.082 56.8573 321 56.8573C313.382 57.3827 294.842 55.5819 286 56.092C279.928 56.092 280.98 57.0788 275 56.8573C273.224 56.7915 263.5 56.092 259.422 56.092C255.344 56.092 251 56.8573 246 56.8573" stroke="black" stroke-width="2" stroke-linecap="round" stroke-linejoin="round"/>
<path d="M354.5 55.8777C340.134 55.6165 333.5 55.8777 317.5 55.3777C309.882 55.903 295.342 54.3471 286.5 54.8573C280.428 54.8573 280.98 55.0788 275 54.8573C273.224 54.7915 263.578 55.3777 259.5 55.3777C255.422 55.3777 251.5 54.8573 246.5 54.8573" stroke="black" stroke-width="0.5" stroke-linecap="round" stroke-linejoin="round"/>
<path d="M300 151.378C303.262 143.585 308.893 137.787 312 129.878C315.341 125.706 318.884 117.636 322 112.378C326.807 104.266 331.393 97.8331 335.5 89.3777C338.79 82.605 340.131 81.4922 345.5 70.3777C347.432 66.3777 351.5 60.8777 353.5 56.8777" stroke="black" stroke-width="2" stroke-linecap="round" stroke-linejoin="round"/>
<path d="M300 149.378C303.262 141.585 305.393 141.287 308.5 133.378C311.841 129.206 316.884 119.136 320 113.878C324.807 105.766 328.393 99.3331 332.5 90.8777C335.79 84.105 339.631 80.4922 345 69.3777C346.932 65.3777 348.5 62.3777 350.5 58.3777" stroke="black" stroke-width="0.5" stroke-linecap="round" stroke-linejoin="round"/>
<path d="M300 151.378C296.927 146.092 292.162 138.086 289 132.878C286.575 128.884 284.224 124.976 282.147 120.822C279.949 116.425 278.557 114.062 276 109.878C274.5 104.878 271.622 102.257 269.5 97.3777C268.495 95.0671 265.48 88.7308 264.036 86.6683C262.895 85.0393 261.168 82.3943 260.578 80.5177C259.591 77.3777 255.882 73.3995 254.5 69.3777C250.834 64.4253 251.075 60.9522 247 56.8777" stroke="black" stroke-width="2" stroke-linecap="round" stroke-linejoin="round"/>
<path d="M298.5 150.878C295.427 145.592 291.662 138.586 288.5 133.378C286.075 129.384 285.077 124.531 283 120.378C280.801 115.98 280.557 114.062 278 109.878C276.5 104.878 271.122 102.257 269 97.3777C267.5 95.3777 265 92.3777 263.036 87.6683C261.895 86.0393 260.587 83.2062 259.578 81.5177C258 78.8777 256.382 77.3995 255 73.3777C251.5 67.8777 249.5 63.3777 246.5 57.3777" stroke="black" stroke-width="0.5" stroke-linecap="round" stroke-linejoin="round"/>
<path d="M27 108C91.1802 108 140.344 107.098 207.375 108C248.159 108 282.938 107.096 330.469 107.096C353.548 106.88 394.019 107.096 414.562 107.096C435.891 107.096 456.609 107.096 477.938 107.096C509.499 107.096 541.841 108 573 108" stroke="black" stroke-width="2" stroke-linecap="round" stroke-linejoin="round"/>
<path d="M155.731 76.754C155.731 76.474 156.039 75.816 156.375 75.816C156.445 75.816 156.529 75.872 156.613 75.984C156.641 76.026 156.809 76.292 157.117 76.782C157.845 77.986 158.671 79.176 159.595 80.338C159.763 80.058 160.379 79.022 161.429 77.23C161.597 76.936 161.863 76.502 162.227 75.956C162.395 75.746 162.605 75.634 162.871 75.634C163.221 75.634 163.795 75.872 163.795 76.278C163.795 76.376 163.627 76.642 163.291 77.076C163.081 77.356 162.857 77.636 162.647 77.916C161.233 79.848 160.113 81.696 159.287 83.446C159.161 83.768 159.021 84.09 158.881 84.412C158.671 84.79 158.419 84.972 158.111 84.972C157.831 84.972 157.355 84.748 157.355 84.426C157.355 84.384 157.901 83.362 158.993 81.388L157.481 79.386C157.103 78.924 156.585 78.224 155.899 77.286C155.787 77.09 155.731 76.908 155.731 76.754ZM168.45 85.098C165.958 85.098 163.956 83.222 163.956 80.702C163.956 77.776 166.602 75.438 169.458 75.438C171.95 75.438 173.966 77.3 173.966 79.834C173.966 82.76 171.306 85.098 168.45 85.098ZM168.87 76.6C166.882 76.6 165.482 78.448 165.482 80.338C165.482 82.27 166.924 84.076 168.94 84.076C170.928 84.076 172.342 82.228 172.342 80.338C172.342 78.392 170.9 76.6 168.87 76.6ZM175.456 80.464C175.4 79.218 175.372 78.224 175.372 77.496C175.372 76.936 175.414 76.558 175.498 76.362C175.652 76.054 175.974 75.9 176.478 75.9C176.772 75.9 176.912 75.998 176.912 76.208C176.912 76.18 176.87 76.572 176.786 77.37C176.688 78.252 176.632 79.484 176.632 81.094C176.632 82.312 176.688 82.97 176.814 83.082C176.856 83.11 176.926 83.124 177.024 83.124C177.836 83.124 180.244 82.032 181.056 81.612C180.972 79.932 180.93 78.546 180.93 77.454C180.93 76.67 180.958 75.886 181.966 75.886C182.316 75.886 182.484 75.998 182.484 76.208C182.484 76.502 182.4 77.468 182.316 77.706C182.246 78.56 182.204 79.526 182.204 80.632C182.204 81.402 182.26 82.2 182.358 83.026C182.442 83.726 182.484 84.104 182.484 84.174C182.484 84.524 181.994 84.762 181.616 84.762C181.392 84.762 181.252 84.678 181.182 84.524C181.168 84.468 181.14 83.992 181.112 83.082C180.034 83.698 177.36 84.748 176.156 84.748C175.764 84.748 175.568 84.538 175.568 84.104C175.568 82.886 175.512 81.682 175.456 80.464ZM183.889 78.658C183.889 78.476 183.987 78.266 184.169 78.028C185.415 76.474 186.801 75.704 188.327 75.704C189.979 75.704 191.645 76.754 191.645 78.546C191.645 80.828 188.873 81.892 187.025 82.298C188.103 82.914 189.013 83.32 189.755 83.502C189.853 83.516 189.979 83.544 190.147 83.586C190.301 83.656 190.385 83.74 190.385 83.866C190.385 84.104 190.077 84.356 189.797 84.356C188.747 84.356 186.717 83.67 185.779 83.18C185.793 83.306 185.821 83.516 185.891 83.81C185.947 84.076 185.975 84.3 185.975 84.454C185.975 84.846 185.443 85 185.135 85C184.911 85 184.757 84.93 184.687 84.776C184.589 84.594 184.505 82.816 184.463 79.442C184.141 79.372 183.889 78.98 183.889 78.658ZM185.583 78.294C185.569 78.742 185.555 79.204 185.555 79.666C185.555 80.212 185.569 80.744 185.597 81.29C187.711 81.234 189.083 80.87 189.713 80.184C190.147 79.708 190.357 79.232 190.357 78.77C190.357 77.65 188.999 77.048 188.033 77.048C187.235 77.048 186.423 77.468 185.583 78.294ZM198.2 77.832C198.074 77.65 198.018 77.44 198.018 77.23C198.018 76.852 198.172 76.572 198.494 76.418C199.572 75.9 200.972 75.648 202.694 75.648C203.212 75.648 203.618 75.69 203.898 75.76C204.346 75.886 204.654 76.11 204.808 76.46C204.85 76.558 204.878 76.628 204.878 76.698C204.878 76.796 204.85 76.866 204.808 76.922C204.71 77.034 204.472 77.104 204.066 77.132C203.296 77.16 202.554 77.202 201.868 77.272C201.812 78.154 201.784 78.98 201.784 79.764C201.784 81.122 201.868 82.34 202.05 83.432C202.148 84.048 202.204 84.384 202.204 84.426C202.204 84.762 201.588 84.958 201.308 84.958C201.098 84.958 200.972 84.888 200.902 84.734C200.804 84.468 200.72 82.06 200.664 77.51C200.328 77.636 199.992 77.762 199.656 77.874C199.166 78.056 198.858 78.14 198.704 78.14C198.494 78.14 198.326 78.042 198.2 77.832ZM205.093 85.182C204.659 85.182 204.225 84.538 204.225 84.132C204.225 84.02 204.323 83.81 204.519 83.502C204.645 83.292 204.785 83.082 204.925 82.872C205.443 81.99 205.961 80.898 206.465 79.596L207.725 76.194C207.879 75.816 208.159 75.62 208.579 75.62C208.775 75.62 208.929 75.718 209.041 75.914C209.139 76.096 209.237 76.334 209.335 76.628C209.489 77.09 209.559 77.342 209.573 77.37C210.343 79.414 211.155 81.178 212.023 82.648C212.163 82.858 212.303 83.068 212.429 83.278C212.611 83.6 212.709 83.81 212.709 83.908C212.709 84.3 212.191 84.678 211.827 84.678C211.645 84.678 211.449 84.482 211.239 84.076C211.127 83.796 211.015 83.516 210.889 83.222C209.531 83.544 207.823 83.908 205.765 84.286C205.513 84.888 205.289 85.182 205.093 85.182ZM206.409 82.816C207.837 82.578 209.125 82.256 210.287 81.822C209.909 80.884 209.307 79.47 208.495 77.594C208.173 78.308 207.487 80.044 206.409 82.816ZM213.763 77.468C213.763 76.95 213.791 76.614 213.861 76.46C213.973 76.138 214.239 75.97 214.659 75.97C214.939 75.97 215.079 76.068 215.079 76.278C215.079 76.236 215.051 76.628 214.995 77.44C214.953 78.154 214.925 78.84 214.925 79.498C214.925 80.898 215.023 82.172 215.205 83.306C215.961 83.306 216.675 83.25 217.347 83.124C217.473 83.11 217.963 82.984 218.817 82.774C219.531 82.592 219.993 82.494 220.175 82.494C220.469 82.494 220.623 82.62 220.623 82.886C220.623 83.25 220.441 83.544 220.077 83.768C218.999 84.412 216.507 84.846 215.233 84.846C214.603 84.846 214.225 84.72 214.085 84.454C213.903 84.118 213.763 78.406 213.763 77.468ZM221.931 84.538C221.805 84.328 221.679 78.098 221.679 77.188C221.679 76.852 221.679 76.656 221.693 76.6C221.791 76.166 222.239 75.9 222.729 75.9C223.051 75.9 223.205 75.998 223.205 76.208C223.205 76.488 223.135 77.37 223.051 77.608C222.981 78.448 222.939 79.358 222.939 80.352C225.809 77.664 227.461 76.306 227.839 76.194C227.965 76.152 228.091 76.138 228.245 76.138C228.693 76.138 228.917 76.264 228.917 76.516C228.917 76.614 228.763 76.81 228.441 77.076C228.329 77.174 227.559 77.902 226.117 79.232C225.207 80.1 224.493 80.786 223.989 81.276C225.347 82.298 226.789 83.152 228.371 83.768C228.609 83.88 228.735 83.978 228.735 84.062C228.735 84.216 228.581 84.356 228.273 84.482C228.007 84.608 227.797 84.664 227.615 84.664C227.461 84.664 226.649 84.412 225.207 83.894C224.353 83.6 223.625 83.208 223.037 82.746C223.149 83.6 223.205 84.076 223.205 84.174C223.205 84.356 223.107 84.496 222.911 84.622C222.729 84.72 222.547 84.762 222.365 84.762C222.141 84.762 222.001 84.692 221.931 84.538Z" fill="black"/>
<path d="M180.739 126.754C180.739 126.474 181.047 125.816 181.383 125.816C181.453 125.816 181.537 125.872 181.621 125.984C181.649 126.026 181.817 126.292 182.125 126.782C182.853 127.986 183.679 129.176 184.603 130.338C184.771 130.058 185.387 129.022 186.437 127.23C186.605 126.936 186.871 126.502 187.235 125.956C187.403 125.746 187.613 125.634 187.879 125.634C188.229 125.634 188.803 125.872 188.803 126.278C188.803 126.376 188.635 126.642 188.299 127.076C188.089 127.356 187.865 127.636 187.655 127.916C186.241 129.848 185.121 131.696 184.295 133.446C184.169 133.768 184.029 134.09 183.889 134.412C183.679 134.79 183.427 134.972 183.119 134.972C182.839 134.972 182.363 134.748 182.363 134.426C182.363 134.384 182.909 133.362 184.001 131.388L182.489 129.386C182.111 128.924 181.593 128.224 180.907 127.286C180.795 127.09 180.739 126.908 180.739 126.754ZM193.458 135.098C190.966 135.098 188.964 133.222 188.964 130.702C188.964 127.776 191.61 125.438 194.466 125.438C196.958 125.438 198.974 127.3 198.974 129.834C198.974 132.76 196.314 135.098 193.458 135.098ZM193.878 126.6C191.89 126.6 190.49 128.448 190.49 130.338C190.49 132.27 191.932 134.076 193.948 134.076C195.936 134.076 197.35 132.228 197.35 130.338C197.35 128.392 195.908 126.6 193.878 126.6ZM200.464 130.464C200.408 129.218 200.38 128.224 200.38 127.496C200.38 126.936 200.422 126.558 200.506 126.362C200.66 126.054 200.982 125.9 201.486 125.9C201.78 125.9 201.92 125.998 201.92 126.208C201.92 126.18 201.878 126.572 201.794 127.37C201.696 128.252 201.64 129.484 201.64 131.094C201.64 132.312 201.696 132.97 201.822 133.082C201.864 133.11 201.934 133.124 202.032 133.124C202.844 133.124 205.252 132.032 206.064 131.612C205.98 129.932 205.938 128.546 205.938 127.454C205.938 126.67 205.966 125.886 206.974 125.886C207.324 125.886 207.492 125.998 207.492 126.208C207.492 126.502 207.408 127.468 207.324 127.706C207.254 128.56 207.212 129.526 207.212 130.632C207.212 131.402 207.268 132.2 207.366 133.026C207.45 133.726 207.492 134.104 207.492 134.174C207.492 134.524 207.002 134.762 206.624 134.762C206.4 134.762 206.26 134.678 206.19 134.524C206.176 134.468 206.148 133.992 206.12 133.082C205.042 133.698 202.368 134.748 201.164 134.748C200.772 134.748 200.576 134.538 200.576 134.104C200.576 132.886 200.52 131.682 200.464 130.464ZM208.897 128.658C208.897 128.476 208.995 128.266 209.177 128.028C210.423 126.474 211.809 125.704 213.335 125.704C214.987 125.704 216.653 126.754 216.653 128.546C216.653 130.828 213.881 131.892 212.033 132.298C213.111 132.914 214.021 133.32 214.763 133.502C214.861 133.516 214.987 133.544 215.155 133.586C215.309 133.656 215.393 133.74 215.393 133.866C215.393 134.104 215.085 134.356 214.805 134.356C213.755 134.356 211.725 133.67 210.787 133.18C210.801 133.306 210.829 133.516 210.899 133.81C210.955 134.076 210.983 134.3 210.983 134.454C210.983 134.846 210.451 135 210.143 135C209.919 135 209.765 134.93 209.695 134.776C209.597 134.594 209.513 132.816 209.471 129.442C209.149 129.372 208.897 128.98 208.897 128.658ZM210.591 128.294C210.577 128.742 210.563 129.204 210.563 129.666C210.563 130.212 210.577 130.744 210.605 131.29C212.719 131.234 214.091 130.87 214.721 130.184C215.155 129.708 215.365 129.232 215.365 128.77C215.365 127.65 214.007 127.048 213.041 127.048C212.243 127.048 211.431 127.468 210.591 128.294ZM223.026 126.866C223.026 126.502 223.502 125.942 223.88 125.942C223.95 125.942 224.02 125.984 224.09 126.054C224.216 126.236 224.51 127.146 224.944 128.812C225.154 129.638 225.49 130.758 225.938 132.186C226.26 131.136 226.778 129.652 227.506 127.734C227.786 127.006 228.08 126.642 228.388 126.642C228.514 126.642 228.626 126.754 228.724 126.964C228.752 127.02 228.808 127.202 228.892 127.496C228.934 127.65 229.144 128.266 229.55 129.344C229.844 130.142 230.138 130.968 230.404 131.808C230.656 130.968 231.23 129.176 232.112 126.446C232.154 126.264 232.238 126.026 232.364 125.718C232.448 125.578 232.532 125.508 232.63 125.508C232.98 125.508 233.386 126.292 233.386 126.614C233.386 126.67 233.232 127.062 232.924 127.79C232.546 128.672 232.182 129.722 231.832 130.94C231.832 130.94 231.552 132.018 230.978 134.16C230.88 134.538 230.684 134.734 230.39 134.734C230.264 134.734 230.166 134.636 230.068 134.426C230.026 134.328 229.872 133.838 229.62 132.928C229.48 132.41 229.256 131.78 228.962 131.038C228.71 130.422 228.458 129.806 228.206 129.176C227.52 131.108 226.932 132.984 226.414 134.818C226.316 135.196 226.12 135.392 225.826 135.392C225.546 135.392 225.434 134.972 225.308 134.37C224.818 132.27 224.286 130.1 223.488 128.084C223.18 127.3 223.026 126.894 223.026 126.866ZM238.589 135.098C236.097 135.098 234.095 133.222 234.095 130.702C234.095 127.776 236.741 125.438 239.597 125.438C242.089 125.438 244.105 127.3 244.105 129.834C244.105 132.76 241.445 135.098 238.589 135.098ZM239.009 126.6C237.021 126.6 235.621 128.448 235.621 130.338C235.621 132.27 237.063 134.076 239.079 134.076C241.067 134.076 242.481 132.228 242.481 130.338C242.481 128.392 241.039 126.6 239.009 126.6ZM245.511 128.658C245.511 128.476 245.609 128.266 245.791 128.028C247.037 126.474 248.423 125.704 249.949 125.704C251.601 125.704 253.267 126.754 253.267 128.546C253.267 130.828 250.495 131.892 248.647 132.298C249.725 132.914 250.635 133.32 251.377 133.502C251.475 133.516 251.601 133.544 251.769 133.586C251.923 133.656 252.007 133.74 252.007 133.866C252.007 134.104 251.699 134.356 251.419 134.356C250.369 134.356 248.339 133.67 247.401 133.18C247.415 133.306 247.443 133.516 247.513 133.81C247.569 134.076 247.597 134.3 247.597 134.454C247.597 134.846 247.065 135 246.757 135C246.533 135 246.379 134.93 246.309 134.776C246.211 134.594 246.127 132.816 246.085 129.442C245.763 129.372 245.511 128.98 245.511 128.658ZM247.205 128.294C247.191 128.742 247.177 129.204 247.177 129.666C247.177 130.212 247.191 130.744 247.219 131.29C249.333 131.234 250.705 130.87 251.335 130.184C251.769 129.708 251.979 129.232 251.979 128.77C251.979 127.65 250.621 127.048 249.655 127.048C248.857 127.048 248.045 127.468 247.205 128.294ZM254.923 134.538C254.797 134.328 254.671 128.098 254.671 127.188C254.671 126.852 254.671 126.656 254.685 126.6C254.783 126.166 255.231 125.9 255.721 125.9C256.043 125.9 256.197 125.998 256.197 126.208C256.197 126.488 256.127 127.37 256.043 127.608C255.973 128.448 255.931 129.358 255.931 130.352C258.801 127.664 260.453 126.306 260.831 126.194C260.957 126.152 261.083 126.138 261.237 126.138C261.685 126.138 261.909 126.264 261.909 126.516C261.909 126.614 261.755 126.81 261.433 127.076C261.321 127.174 260.551 127.902 259.109 129.232C258.199 130.1 257.485 130.786 256.981 131.276C258.339 132.298 259.781 133.152 261.363 133.768C261.601 133.88 261.727 133.978 261.727 134.062C261.727 134.216 261.573 134.356 261.265 134.482C260.999 134.608 260.789 134.664 260.607 134.664C260.453 134.664 259.641 134.412 258.199 133.894C257.345 133.6 256.617 133.208 256.029 132.746C256.141 133.6 256.197 134.076 256.197 134.174C256.197 134.356 256.099 134.496 255.903 134.622C255.721 134.72 255.539 134.762 255.357 134.762C255.133 134.762 254.993 134.692 254.923 134.538Z" fill="black"/>
</svg>
