<svg width="600" height="187" viewBox="0 0 600 187" fill="none" xmlns="http://www.w3.org/2000/svg">
<g clip-path="url(#clip0_7_225)">
<rect width="600" height="187" fill="white"/>
<path d="M206.284 113.014C188.955 99.2494 197.473 74.9366 210.332 68.8343C199.181 52.4391 217.012 39.5233 226.169 41.2631C226.107 22.4863 254.557 17.8452 264.419 28.0907C264.35 6.7527 296.498 0.0156988 306.75 19.0103C330.879 1.205 365.152 23.7487 354.362 42.4369C362.805 33.9634 372.633 38.8482 377.074 49.3269C389.547 42.1628 411.943 52.7939 401.167 76.037C412.028 78.8822 407.528 103.926 401.259 104.196C409.855 118.321 387.564 139.727 379.298 131.12C379.361 150.283 356.33 154.73 343.421 144.617C331.614 161.771 307.196 155.568 304.445 143.31C293.872 155.779 287.547 154.018 275.983 144.537C254.781 161.037 215.922 144.075 224.422 128.833C210.542 133.124 201.373 119.438 206.284 113.014Z" fill="white"/>
<path d="M364.774 33.2726L377.652 8.28282M376.053 33.503L393.344 12.4866M378.272 45.9497L398.319 30.6085" stroke="#FBDE74" stroke-width="2.89507" stroke-linecap="round" stroke-linejoin="round"/>
<path d="M235.625 130.191L222.746 155.181M224.345 129.961L207.054 150.977M222.126 117.514L202.079 132.855" stroke="#FBDE74" stroke-width="2.89507" stroke-linecap="round" stroke-linejoin="round"/>
<path d="M241.596 38.5821L228.558 14.7095M230.321 39.7848L212.897 20.2647M228.184 52.4192L208.042 38.8103" stroke="#FBDE74" stroke-width="2.89507" stroke-linecap="round" stroke-linejoin="round"/>
<path d="M365.116 138.223L378.154 162.096M376.391 137.021L393.815 156.541M378.528 124.386L398.67 137.995" stroke="#FBDE74" stroke-width="2.89507" stroke-linecap="round" stroke-linejoin="round"/>
<path d="M252.064 44.4531C267.662 44.4531 283.066 44.525 298.961 44.525C305.786 44.525 311.986 44.4531 318.835 44.4531C323.278 44.4531 327.72 44.1438 332.163 44.1438C336.951 44.1438 342.687 44.3866 347.4 44" stroke="black" stroke-width="2" stroke-linecap="round" stroke-linejoin="round"/>
<path d="M251.463 44.453C251.962 52.8456 252.167 60.3216 252.167 68.6189C252.167 76.8498 252.383 84.5425 252.383 93.4752C252.383 108.868 253.267 126.476 253.267 141.829" stroke="black" stroke-width="2" stroke-linecap="round" stroke-linejoin="round"/>
<path d="M253.267 141.735C262.371 141.735 271.13 141.667 280.924 141.807C289.113 142.329 296.763 140.807 305.113 140.807C309.021 140.807 313.391 141.82 317.299 141.82C321.081 141.82 327.069 141.667 331.429 141.667C338.806 141.82 345.243 141.667 349.024 141.667" stroke="black" stroke-width="2" stroke-linecap="round" stroke-linejoin="round"/>
<path d="M347.356 44C347.356 52.4168 348.263 59.324 348.263 67.5833C348.263 76.5592 348.263 85.5351 348.263 94.5109C348.263 110.923 348.865 125.642 348.865 141.82" stroke="black" stroke-width="2" stroke-linecap="round" stroke-linejoin="round"/>
<path d="M350 119.49C348.626 94.6542 349.105 68.7197 349.105 44" stroke="black" stroke-linecap="round" stroke-linejoin="round"/>
<path d="M250.976 119.49C249.602 94.6542 250.081 68.7197 250.081 44" stroke="black" stroke-width="0.5" stroke-linecap="round" stroke-linejoin="round"/>
<path d="M252.439 144C251.065 119.164 251.544 93.2294 251.544 68.5098" stroke="black" stroke-linecap="round" stroke-linejoin="round"/>
<path d="M120 92C162.317 92 194.732 91.0976 238.929 92C265.819 92 288.75 91.0958 320.089 91.0958C335.306 90.8802 361.99 91.0958 375.536 91.0958C389.599 91.0958 403.259 91.0958 417.321 91.0958C438.131 91.0958 459.455 92 480 92" stroke="black" stroke-width="2" stroke-linecap="round" stroke-linejoin="round"/>
<path d="M73.35 106.866C73.35 106.502 73.826 105.942 74.204 105.942C74.274 105.942 74.344 105.984 74.414 106.054C74.54 106.236 74.834 107.146 75.268 108.812C75.478 109.638 75.814 110.758 76.262 112.186C76.584 111.136 77.102 109.652 77.83 107.734C78.11 107.006 78.404 106.642 78.712 106.642C78.838 106.642 78.95 106.754 79.048 106.964C79.076 107.02 79.132 107.202 79.216 107.496C79.258 107.65 79.468 108.266 79.874 109.344C80.168 110.142 80.462 110.968 80.728 111.808C80.98 110.968 81.554 109.176 82.436 106.446C82.478 106.264 82.562 106.026 82.688 105.718C82.772 105.578 82.856 105.508 82.954 105.508C83.304 105.508 83.71 106.292 83.71 106.614C83.71 106.67 83.556 107.062 83.248 107.79C82.87 108.672 82.506 109.722 82.156 110.94C82.156 110.94 81.876 112.018 81.302 114.16C81.204 114.538 81.008 114.734 80.714 114.734C80.588 114.734 80.49 114.636 80.392 114.426C80.35 114.328 80.196 113.838 79.944 112.928C79.804 112.41 79.58 111.78 79.286 111.038C79.034 110.422 78.782 109.806 78.53 109.176C77.844 111.108 77.256 112.984 76.738 114.818C76.64 115.196 76.444 115.392 76.15 115.392C75.87 115.392 75.758 114.972 75.632 114.37C75.142 112.27 74.61 110.1 73.812 108.084C73.504 107.3 73.35 106.894 73.35 106.866ZM84.9005 110.324C84.8025 109.022 84.7605 107.916 84.7605 107.034C84.7605 106.474 85.2505 106.152 85.7685 106.152C86.0905 106.152 86.2445 106.278 86.2445 106.53C86.2445 106.544 86.2305 106.852 86.1885 107.468C86.1325 108.182 86.1045 108.938 86.1045 109.708C87.4485 109.274 88.7925 109.008 90.1365 108.938L90.1225 107.02C90.1225 106.152 90.2905 105.676 91.2425 105.676C91.6905 105.676 91.6485 105.9 91.6205 106.25L91.5365 106.978C91.4805 107.594 91.4385 108.238 91.3965 108.924C91.5785 108.966 91.7605 109.05 91.9285 109.176C92.1385 109.33 92.2505 109.484 92.2505 109.638C92.2505 109.89 91.9565 110.016 91.3825 110.016C91.3825 111.276 91.4245 112.242 91.5085 112.928C91.5925 113.18 91.6625 113.698 91.6625 113.964C91.6625 114.314 91.1725 114.552 90.7945 114.552C90.0945 114.552 90.2765 113.502 90.2765 112.564C90.2765 112.256 90.2625 111.864 90.2345 111.374C90.2065 110.716 90.1925 110.324 90.1785 110.17C88.6805 110.38 87.3225 110.702 86.1325 111.136C86.1885 112.074 86.2585 112.83 86.3425 113.404C86.4545 114.062 86.5105 114.426 86.5105 114.496C86.5105 114.818 85.8805 115.028 85.6145 115.028C85.4045 115.028 85.2785 114.958 85.2225 114.804C85.1805 114.678 85.1525 114.482 85.1385 114.216V113.6C85.0685 112.508 84.9845 111.416 84.9005 110.324ZM93.8235 115.182C93.3895 115.182 92.9555 114.538 92.9555 114.132C92.9555 114.02 93.0535 113.81 93.2495 113.502C93.3755 113.292 93.5155 113.082 93.6555 112.872C94.1735 111.99 94.6915 110.898 95.1955 109.596L96.4555 106.194C96.6095 105.816 96.8895 105.62 97.3095 105.62C97.5055 105.62 97.6595 105.718 97.7715 105.914C97.8695 106.096 97.9675 106.334 98.0655 106.628C98.2195 107.09 98.2895 107.342 98.3035 107.37C99.0735 109.414 99.8855 111.178 100.753 112.648C100.893 112.858 101.033 113.068 101.159 113.278C101.341 113.6 101.439 113.81 101.439 113.908C101.439 114.3 100.921 114.678 100.557 114.678C100.375 114.678 100.179 114.482 99.9695 114.076C99.8575 113.796 99.7455 113.516 99.6195 113.222C98.2615 113.544 96.5535 113.908 94.4955 114.286C94.2435 114.888 94.0195 115.182 93.8235 115.182ZM95.1395 112.816C96.5675 112.578 97.8555 112.256 99.0175 111.822C98.6395 110.884 98.0375 109.47 97.2255 107.594C96.9035 108.308 96.2175 110.044 95.1395 112.816ZM100.971 107.832C100.845 107.65 100.789 107.44 100.789 107.23C100.789 106.852 100.943 106.572 101.265 106.418C102.343 105.9 103.743 105.648 105.465 105.648C105.983 105.648 106.389 105.69 106.669 105.76C107.117 105.886 107.425 106.11 107.579 106.46C107.621 106.558 107.649 106.628 107.649 106.698C107.649 106.796 107.621 106.866 107.579 106.922C107.481 107.034 107.243 107.104 106.837 107.132C106.067 107.16 105.325 107.202 104.639 107.272C104.583 108.154 104.555 108.98 104.555 109.764C104.555 111.122 104.639 112.34 104.821 113.432C104.919 114.048 104.975 114.384 104.975 114.426C104.975 114.762 104.359 114.958 104.079 114.958C103.869 114.958 103.743 114.888 103.673 114.734C103.575 114.468 103.491 112.06 103.435 107.51C103.099 107.636 102.763 107.762 102.427 107.874C101.937 108.056 101.629 108.14 101.475 108.14C101.265 108.14 101.097 108.042 100.971 107.832ZM108.98 114.916C108.798 114.818 108.7 114.692 108.7 114.538C108.7 114.412 108.826 114.174 109.078 113.81C109.246 113.558 109.414 113.306 109.582 113.068C111.052 110.786 112.34 108.812 113.46 107.174C113.656 106.866 113.964 106.432 114.398 105.858C114.594 105.634 114.846 105.522 115.168 105.522C115.49 105.522 116.008 105.676 116.008 106.068C116.008 106.18 115.812 106.46 115.434 106.922C113.46 109.302 111.906 111.472 110.8 113.418L110.296 114.426C110.058 114.832 109.778 115.028 109.456 115.028C109.288 115.028 109.134 114.986 108.98 114.916ZM117.549 110.324C117.451 109.022 117.409 107.916 117.409 107.034C117.409 106.474 117.899 106.152 118.417 106.152C118.739 106.152 118.893 106.278 118.893 106.53C118.893 106.544 118.879 106.852 118.837 107.468C118.781 108.182 118.753 108.938 118.753 109.708C120.097 109.274 121.441 109.008 122.785 108.938L122.771 107.02C122.771 106.152 122.939 105.676 123.891 105.676C124.325 105.676 124.311 105.914 124.269 106.25L124.185 106.978C124.129 107.594 124.087 108.238 124.045 108.924C124.227 108.966 124.409 109.05 124.577 109.176C124.787 109.33 124.899 109.484 124.899 109.638C124.899 109.89 124.605 110.016 124.031 110.016C124.031 111.276 124.073 112.242 124.157 112.928C124.241 113.18 124.311 113.698 124.311 113.964C124.311 114.314 123.821 114.552 123.443 114.552C122.743 114.552 122.925 113.502 122.925 112.564C122.925 112.256 122.911 111.864 122.883 111.374C122.855 110.716 122.841 110.324 122.827 110.17C121.329 110.38 119.971 110.702 118.781 111.136C118.837 112.074 118.907 112.83 118.991 113.404C119.103 114.062 119.159 114.426 119.159 114.496C119.159 114.818 118.529 115.028 118.263 115.028C118.053 115.028 117.927 114.958 117.871 114.804C117.829 114.678 117.801 114.482 117.787 114.216V113.6C117.717 112.508 117.633 111.416 117.549 110.324ZM130.448 115.098C127.956 115.098 125.954 113.222 125.954 110.702C125.954 107.776 128.6 105.438 131.456 105.438C133.948 105.438 135.964 107.3 135.964 109.834C135.964 112.76 133.304 115.098 130.448 115.098ZM130.868 106.6C128.88 106.6 127.48 108.448 127.48 110.338C127.48 112.27 128.922 114.076 130.938 114.076C132.926 114.076 134.34 112.228 134.34 110.338C134.34 108.392 132.898 106.6 130.868 106.6ZM137.02 106.866C137.02 106.502 137.496 105.942 137.874 105.942C137.944 105.942 138.014 105.984 138.084 106.054C138.21 106.236 138.504 107.146 138.938 108.812C139.148 109.638 139.484 110.758 139.932 112.186C140.254 111.136 140.772 109.652 141.5 107.734C141.78 107.006 142.074 106.642 142.382 106.642C142.508 106.642 142.62 106.754 142.718 106.964C142.746 107.02 142.802 107.202 142.886 107.496C142.928 107.65 143.138 108.266 143.544 109.344C143.838 110.142 144.132 110.968 144.398 111.808C144.65 110.968 145.224 109.176 146.106 106.446C146.148 106.264 146.232 106.026 146.358 105.718C146.442 105.578 146.526 105.508 146.624 105.508C146.974 105.508 147.38 106.292 147.38 106.614C147.38 106.67 147.226 107.062 146.918 107.79C146.54 108.672 146.176 109.722 145.826 110.94C145.826 110.94 145.546 112.018 144.972 114.16C144.874 114.538 144.678 114.734 144.384 114.734C144.258 114.734 144.16 114.636 144.062 114.426C144.02 114.328 143.866 113.838 143.614 112.928C143.474 112.41 143.25 111.78 142.956 111.038C142.704 110.422 142.452 109.806 142.2 109.176C141.514 111.108 140.926 112.984 140.408 114.818C140.31 115.196 140.114 115.392 139.82 115.392C139.54 115.392 139.428 114.972 139.302 114.37C138.812 112.27 138.28 110.1 137.482 108.084C137.174 107.3 137.02 106.894 137.02 106.866ZM154.141 115.182C153.777 115.182 153.399 114.398 153.399 114.076C153.399 113.978 153.455 113.782 153.581 113.502C154.141 112.452 154.617 110.898 154.925 109.764C155.219 108.686 155.499 107.622 155.793 106.544C155.905 106.166 156.101 105.97 156.395 105.97C156.549 105.97 156.689 106.152 156.801 106.502C157.235 108.448 157.879 110.338 158.607 112.186C159.041 110.996 159.447 109.582 159.853 107.944C159.951 107.482 160.119 106.782 160.357 105.872C160.455 105.494 160.651 105.298 160.931 105.298C161.113 105.298 161.281 105.55 161.407 106.054L161.617 107.062C162.135 109.288 162.681 111.108 163.255 112.522C163.577 113.362 163.745 113.796 163.745 113.838C163.745 114.202 163.283 114.748 162.905 114.748C162.821 114.748 162.751 114.706 162.681 114.636C162.597 114.524 162.289 113.572 161.771 111.78C161.449 110.688 161.141 109.596 160.833 108.518C160.609 109.316 159.069 114.79 158.915 114.972C158.817 115.098 158.719 115.168 158.621 115.168C158.439 115.168 158.271 115.028 158.117 114.748C157.991 114.482 157.921 114.244 157.921 114.02C157.921 113.978 157.921 113.936 157.935 113.894C157.753 113.376 157.235 111.71 156.367 108.868C156.073 109.848 155.527 111.584 154.715 114.076C154.673 114.286 154.561 114.58 154.407 114.972C154.323 115.112 154.239 115.182 154.141 115.182ZM164.88 110.464C164.824 109.218 164.796 108.224 164.796 107.496C164.796 106.936 164.838 106.558 164.922 106.362C165.076 106.054 165.398 105.9 165.902 105.9C166.196 105.9 166.336 105.998 166.336 106.208C166.336 106.18 166.294 106.572 166.21 107.37C166.112 108.252 166.056 109.484 166.056 111.094C166.056 112.312 166.112 112.97 166.238 113.082C166.28 113.11 166.35 113.124 166.448 113.124C167.26 113.124 169.668 112.032 170.48 111.612C170.396 109.932 170.354 108.546 170.354 107.454C170.354 106.67 170.382 105.886 171.39 105.886C171.74 105.886 171.908 105.998 171.908 106.208C171.908 106.502 171.824 107.468 171.74 107.706C171.67 108.56 171.628 109.526 171.628 110.632C171.628 111.402 171.684 112.2 171.782 113.026C171.866 113.726 171.908 114.104 171.908 114.174C171.908 114.524 171.418 114.762 171.04 114.762C170.816 114.762 170.676 114.678 170.606 114.524C170.592 114.468 170.564 113.992 170.536 113.082C169.458 113.698 166.784 114.748 165.58 114.748C165.188 114.748 164.992 114.538 164.992 114.104C164.992 112.886 164.936 111.682 164.88 110.464ZM176.085 114.93C174.251 114.93 173.313 113.516 173.313 111.808C173.313 108.252 176.477 105.676 179.907 105.676C180.257 105.676 180.467 105.732 180.537 105.858C180.579 105.928 180.593 106.152 180.593 106.516C180.593 106.642 180.635 106.838 180.719 107.09C180.803 107.342 180.845 107.524 180.845 107.65C180.845 108.056 180.229 108.448 179.865 108.448C179.711 108.448 179.585 108.28 179.487 107.958C179.445 107.72 179.389 107.496 179.333 107.258C177.667 107.524 176.407 108.14 175.525 109.134C174.755 110.016 174.363 110.856 174.363 111.654C174.363 112.858 175.483 113.502 176.575 113.502C177.751 113.502 179.165 112.774 180.187 112.214C180.733 111.92 181.041 111.766 181.111 111.766C181.293 111.766 181.377 111.948 181.377 112.312C181.377 112.466 181.265 112.62 181.055 112.802C180.873 112.914 180.705 113.026 180.537 113.152C178.843 114.342 177.359 114.93 176.085 114.93ZM182.914 110.324C182.816 109.022 182.774 107.916 182.774 107.034C182.774 106.474 183.264 106.152 183.782 106.152C184.104 106.152 184.258 106.278 184.258 106.53C184.258 106.544 184.244 106.852 184.202 107.468C184.146 108.182 184.118 108.938 184.118 109.708C185.462 109.274 186.806 109.008 188.15 108.938L188.136 107.02C188.136 106.152 188.304 105.676 189.256 105.676C189.69 105.676 189.676 105.914 189.634 106.25L189.55 106.978C189.494 107.594 189.452 108.238 189.41 108.924C189.592 108.966 189.774 109.05 189.942 109.176C190.152 109.33 190.264 109.484 190.264 109.638C190.264 109.89 189.97 110.016 189.396 110.016C189.396 111.276 189.438 112.242 189.522 112.928C189.606 113.18 189.676 113.698 189.676 113.964C189.676 114.314 189.186 114.552 188.808 114.552C188.108 114.552 188.29 113.502 188.29 112.564C188.29 112.256 188.276 111.864 188.248 111.374C188.22 110.716 188.206 110.324 188.192 110.17C186.694 110.38 185.336 110.702 184.146 111.136C184.202 112.074 184.272 112.83 184.356 113.404C184.468 114.062 184.524 114.426 184.524 114.496C184.524 114.818 183.894 115.028 183.628 115.028C183.418 115.028 183.292 114.958 183.236 114.804C183.194 114.678 183.166 114.482 183.152 114.216V113.6C183.082 112.508 182.998 111.416 182.914 110.324ZM73.35 130.754C73.35 130.474 73.658 129.816 73.994 129.816C74.064 129.816 74.148 129.872 74.232 129.984C74.26 130.026 74.428 130.292 74.736 130.782C75.464 131.986 76.29 133.176 77.214 134.338C77.382 134.058 77.998 133.022 79.048 131.23C79.216 130.936 79.482 130.502 79.846 129.956C80.014 129.746 80.224 129.634 80.49 129.634C80.686 129.634 80.882 129.69 81.078 129.802C81.75 130.18 81.232 130.656 80.91 131.076C80.7 131.356 80.476 131.636 80.266 131.916C78.852 133.848 77.732 135.696 76.906 137.446C76.78 137.768 76.64 138.09 76.5 138.412C76.29 138.79 76.038 138.972 75.73 138.972C75.45 138.972 74.974 138.748 74.974 138.426C74.974 138.384 75.52 137.362 76.612 135.388L75.1 133.386C74.722 132.924 74.204 132.224 73.518 131.286C73.406 131.09 73.35 130.908 73.35 130.754ZM86.0553 139.098C83.5633 139.098 81.5613 137.222 81.5613 134.702C81.5613 131.776 84.2073 129.438 87.0633 129.438C89.5553 129.438 91.5713 131.3 91.5713 133.834C91.5713 136.76 88.9113 139.098 86.0553 139.098ZM86.4753 130.6C84.4873 130.6 83.0873 132.448 83.0873 134.338C83.0873 136.27 84.5293 138.076 86.5453 138.076C88.5333 138.076 89.9473 136.228 89.9473 134.338C89.9473 132.392 88.5053 130.6 86.4753 130.6ZM93.0613 134.464C93.0053 133.218 92.9773 132.224 92.9773 131.496C92.9773 130.936 93.0193 130.558 93.1033 130.362C93.2573 130.054 93.5793 129.9 94.0833 129.9C94.3773 129.9 94.5173 129.998 94.5173 130.208C94.5173 130.18 94.4753 130.572 94.3913 131.37C94.2933 132.252 94.2373 133.484 94.2373 135.094C94.2373 136.312 94.2933 136.97 94.4193 137.082C94.4613 137.11 94.5313 137.124 94.6293 137.124C95.4413 137.124 97.8493 136.032 98.6613 135.612C98.5773 133.932 98.5353 132.546 98.5353 131.454C98.5353 130.67 98.5633 129.886 99.5713 129.886C99.9213 129.886 100.089 129.998 100.089 130.208C100.089 130.502 100.005 131.468 99.9213 131.706C99.8513 132.56 99.8093 133.526 99.8093 134.632C99.8093 135.402 99.8653 136.2 99.9633 137.026C100.047 137.726 100.089 138.104 100.089 138.174C100.089 138.524 99.5993 138.762 99.2213 138.762C98.9973 138.762 98.8573 138.678 98.7873 138.524C98.7733 138.468 98.7453 137.992 98.7173 137.082C97.6393 137.698 94.9653 138.748 93.7613 138.748C93.3693 138.748 93.1733 138.538 93.1733 138.104C93.1733 136.886 93.1173 135.682 93.0613 134.464ZM106.463 130.866C106.463 130.502 106.939 129.942 107.317 129.942C107.387 129.942 107.457 129.984 107.527 130.054C107.653 130.236 107.947 131.146 108.381 132.812C108.591 133.638 108.927 134.758 109.375 136.186C109.697 135.136 110.215 133.652 110.943 131.734C111.223 131.006 111.517 130.642 111.825 130.642C111.951 130.642 112.063 130.754 112.161 130.964C112.189 131.02 112.245 131.202 112.329 131.496C112.371 131.65 112.581 132.266 112.987 133.344C113.281 134.142 113.575 134.968 113.841 135.808C114.093 134.968 114.667 133.176 115.549 130.446C115.591 130.264 115.675 130.026 115.801 129.718C115.885 129.578 115.969 129.508 116.067 129.508C116.417 129.508 116.823 130.292 116.823 130.614C116.823 130.67 116.669 131.062 116.361 131.79C115.983 132.672 115.619 133.722 115.269 134.94C115.269 134.94 114.989 136.018 114.415 138.16C114.317 138.538 114.121 138.734 113.827 138.734C113.701 138.734 113.603 138.636 113.505 138.426C113.463 138.328 113.309 137.838 113.057 136.928C112.917 136.41 112.693 135.78 112.399 135.038C112.147 134.422 111.895 133.806 111.643 133.176C110.957 135.108 110.369 136.984 109.851 138.818C109.753 139.196 109.557 139.392 109.263 139.392C108.983 139.392 108.871 138.972 108.745 138.37C108.255 136.27 107.723 134.1 106.925 132.084C106.617 131.3 106.463 130.894 106.463 130.866ZM122.026 139.098C119.534 139.098 117.532 137.222 117.532 134.702C117.532 131.776 120.178 129.438 123.034 129.438C125.526 129.438 127.542 131.3 127.542 133.834C127.542 136.76 124.882 139.098 122.026 139.098ZM122.446 130.6C120.458 130.6 119.058 132.448 119.058 134.338C119.058 136.27 120.5 138.076 122.516 138.076C124.504 138.076 125.918 136.228 125.918 134.338C125.918 132.392 124.476 130.6 122.446 130.6ZM128.948 132.658C128.948 132.476 129.046 132.266 129.228 132.028C130.474 130.474 131.86 129.704 133.386 129.704C135.038 129.704 136.704 130.754 136.704 132.546C136.704 134.828 133.932 135.892 132.084 136.298C133.162 136.914 134.072 137.32 134.814 137.502C134.912 137.516 135.038 137.544 135.206 137.586C135.36 137.656 135.444 137.74 135.444 137.866C135.444 138.104 135.136 138.356 134.856 138.356C133.806 138.356 131.776 137.67 130.838 137.18C130.852 137.306 130.88 137.516 130.95 137.81C131.006 138.076 131.034 138.3 131.034 138.454C131.034 138.846 130.502 139 130.194 139C129.97 139 129.816 138.93 129.746 138.776C129.648 138.594 129.564 136.816 129.522 133.442C129.2 133.372 128.948 132.98 128.948 132.658ZM130.642 132.294C130.628 132.742 130.614 133.204 130.614 133.666C130.614 134.212 130.628 134.744 130.656 135.29C132.77 135.234 134.142 134.87 134.772 134.184C135.206 133.708 135.416 133.232 135.416 132.77C135.416 131.65 134.058 131.048 133.092 131.048C132.294 131.048 131.482 131.468 130.642 132.294ZM138.36 138.538C138.234 138.328 138.108 132.098 138.108 131.188C138.108 130.852 138.108 130.656 138.122 130.6C138.22 130.166 138.668 129.9 139.158 129.9C139.48 129.9 139.634 129.998 139.634 130.208C139.634 130.488 139.564 131.37 139.48 131.608C139.41 132.448 139.368 133.358 139.368 134.352C142.238 131.664 143.89 130.306 144.268 130.194C144.394 130.152 144.52 130.138 144.674 130.138C145.122 130.138 145.346 130.264 145.346 130.516C145.346 130.614 145.192 130.81 144.87 131.076C144.758 131.174 143.988 131.902 142.546 133.232C141.636 134.1 140.922 134.786 140.418 135.276C141.776 136.298 143.218 137.152 144.8 137.768C145.038 137.88 145.164 137.978 145.164 138.062C145.164 138.216 145.01 138.356 144.702 138.482C144.436 138.608 144.226 138.664 144.044 138.664C143.89 138.664 143.078 138.412 141.636 137.894C140.782 137.6 140.054 137.208 139.466 136.746C139.578 137.6 139.634 138.076 139.634 138.174C139.634 138.356 139.536 138.496 139.34 138.622C139.158 138.72 138.976 138.762 138.794 138.762C138.57 138.762 138.43 138.692 138.36 138.538Z" fill="#3E71F4"/>
<path d="M426.35 38.866C426.35 38.502 426.826 37.942 427.204 37.942C427.274 37.942 427.344 37.984 427.414 38.054C427.54 38.236 427.834 39.146 428.268 40.812C428.478 41.638 428.814 42.758 429.262 44.186C429.584 43.136 430.102 41.652 430.83 39.734C431.11 39.006 431.404 38.642 431.712 38.642C431.838 38.642 431.95 38.754 432.048 38.964C432.076 39.02 432.132 39.202 432.216 39.496C432.258 39.65 432.468 40.266 432.874 41.344C433.168 42.142 433.462 42.968 433.728 43.808C433.98 42.968 434.554 41.176 435.436 38.446C435.478 38.264 435.562 38.026 435.688 37.718C435.772 37.578 435.856 37.508 435.954 37.508C436.304 37.508 436.71 38.292 436.71 38.614C436.71 38.67 436.556 39.062 436.248 39.79C435.87 40.672 435.506 41.722 435.156 42.94C435.156 42.94 434.876 44.018 434.302 46.16C434.204 46.538 434.008 46.734 433.714 46.734C433.588 46.734 433.49 46.636 433.392 46.426C433.35 46.328 433.196 45.838 432.944 44.928C432.804 44.41 432.58 43.78 432.286 43.038C432.034 42.422 431.782 41.806 431.53 41.176C430.844 43.108 430.256 44.984 429.738 46.818C429.64 47.196 429.444 47.392 429.15 47.392C428.87 47.392 428.758 46.972 428.632 46.37C428.142 44.27 427.61 42.1 426.812 40.084C426.504 39.3 426.35 38.894 426.35 38.866ZM437.901 42.324C437.803 41.022 437.761 39.916 437.761 39.034C437.761 38.474 438.251 38.152 438.769 38.152C439.091 38.152 439.245 38.278 439.245 38.53C439.245 38.544 439.231 38.852 439.189 39.468C439.133 40.182 439.105 40.938 439.105 41.708C440.449 41.274 441.793 41.008 443.137 40.938L443.123 39.02C443.123 38.152 443.291 37.676 444.243 37.676C444.691 37.676 444.649 37.9 444.621 38.25L444.537 38.978C444.481 39.594 444.439 40.238 444.397 40.924C444.579 40.966 444.761 41.05 444.929 41.176C445.139 41.33 445.251 41.484 445.251 41.638C445.251 41.89 444.957 42.016 444.383 42.016C444.383 43.276 444.425 44.242 444.509 44.928C444.593 45.18 444.663 45.698 444.663 45.964C444.663 46.314 444.173 46.552 443.795 46.552C443.095 46.552 443.277 45.502 443.277 44.564C443.277 44.256 443.263 43.864 443.235 43.374C443.207 42.716 443.193 42.324 443.179 42.17C441.681 42.38 440.323 42.702 439.133 43.136C439.189 44.074 439.259 44.83 439.343 45.404C439.455 46.062 439.511 46.426 439.511 46.496C439.511 46.818 438.881 47.028 438.615 47.028C438.405 47.028 438.279 46.958 438.223 46.804C438.181 46.678 438.153 46.482 438.139 46.216V45.6C438.069 44.508 437.985 43.416 437.901 42.324ZM446.823 47.182C446.389 47.182 445.955 46.538 445.955 46.132C445.955 46.02 446.053 45.81 446.249 45.502C446.375 45.292 446.515 45.082 446.655 44.872C447.173 43.99 447.691 42.898 448.195 41.596L449.455 38.194C449.609 37.816 449.889 37.62 450.309 37.62C450.505 37.62 450.659 37.718 450.771 37.914C450.869 38.096 450.967 38.334 451.065 38.628C451.219 39.09 451.289 39.342 451.303 39.37C452.073 41.414 452.885 43.178 453.753 44.648C453.893 44.858 454.033 45.068 454.159 45.278C454.341 45.6 454.439 45.81 454.439 45.908C454.439 46.3 453.921 46.678 453.557 46.678C453.375 46.678 453.179 46.482 452.969 46.076C452.857 45.796 452.745 45.516 452.619 45.222C451.261 45.544 449.553 45.908 447.495 46.286C447.243 46.888 447.019 47.182 446.823 47.182ZM448.139 44.816C449.567 44.578 450.855 44.256 452.017 43.822C451.639 42.884 451.037 41.47 450.225 39.594C449.903 40.308 449.217 42.044 448.139 44.816ZM453.971 39.832C453.845 39.65 453.789 39.44 453.789 39.23C453.789 38.852 453.943 38.572 454.265 38.418C455.343 37.9 456.743 37.648 458.465 37.648C458.983 37.648 459.389 37.69 459.669 37.76C460.117 37.886 460.425 38.11 460.579 38.46C460.621 38.558 460.649 38.628 460.649 38.698C460.649 38.796 460.621 38.866 460.579 38.922C460.481 39.034 460.243 39.104 459.837 39.132C459.067 39.16 458.325 39.202 457.639 39.272C457.583 40.154 457.555 40.98 457.555 41.764C457.555 43.122 457.639 44.34 457.821 45.432C457.919 46.048 457.975 46.384 457.975 46.426C457.975 46.762 457.359 46.958 457.079 46.958C456.869 46.958 456.743 46.888 456.673 46.734C456.575 46.468 456.491 44.06 456.435 39.51C456.099 39.636 455.763 39.762 455.427 39.874C454.937 40.056 454.629 40.14 454.475 40.14C454.265 40.14 454.097 40.042 453.971 39.832ZM461.98 46.916C461.798 46.818 461.7 46.692 461.7 46.538C461.7 46.412 461.826 46.174 462.078 45.81C462.246 45.558 462.414 45.306 462.582 45.068C464.052 42.786 465.34 40.812 466.46 39.174C466.656 38.866 466.964 38.432 467.398 37.858C467.594 37.634 467.846 37.522 468.168 37.522C468.49 37.522 469.008 37.676 469.008 38.068C469.008 38.18 468.812 38.46 468.434 38.922C466.46 41.302 464.906 43.472 463.8 45.418L463.296 46.426C463.058 46.832 462.778 47.028 462.456 47.028C462.288 47.028 462.134 46.986 461.98 46.916ZM470.549 42.324C470.451 41.022 470.409 39.916 470.409 39.034C470.409 38.474 470.899 38.152 471.417 38.152C471.739 38.152 471.893 38.278 471.893 38.53C471.893 38.544 471.879 38.852 471.837 39.468C471.781 40.182 471.753 40.938 471.753 41.708C473.097 41.274 474.441 41.008 475.785 40.938L475.771 39.02C475.771 38.152 475.939 37.676 476.891 37.676C477.325 37.676 477.311 37.914 477.269 38.25L477.185 38.978C477.129 39.594 477.087 40.238 477.045 40.924C477.227 40.966 477.409 41.05 477.577 41.176C477.787 41.33 477.899 41.484 477.899 41.638C477.899 41.89 477.605 42.016 477.031 42.016C477.031 43.276 477.073 44.242 477.157 44.928C477.241 45.18 477.311 45.698 477.311 45.964C477.311 46.314 476.821 46.552 476.443 46.552C475.743 46.552 475.925 45.502 475.925 44.564C475.925 44.256 475.911 43.864 475.883 43.374C475.855 42.716 475.841 42.324 475.827 42.17C474.329 42.38 472.971 42.702 471.781 43.136C471.837 44.074 471.907 44.83 471.991 45.404C472.103 46.062 472.159 46.426 472.159 46.496C472.159 46.818 471.529 47.028 471.263 47.028C471.053 47.028 470.927 46.958 470.871 46.804C470.829 46.678 470.801 46.482 470.787 46.216V45.6C470.717 44.508 470.633 43.416 470.549 42.324ZM483.448 47.098C480.956 47.098 478.954 45.222 478.954 42.702C478.954 39.776 481.6 37.438 484.456 37.438C486.948 37.438 488.964 39.3 488.964 41.834C488.964 44.76 486.304 47.098 483.448 47.098ZM483.868 38.6C481.88 38.6 480.48 40.448 480.48 42.338C480.48 44.27 481.922 46.076 483.938 46.076C485.926 46.076 487.34 44.228 487.34 42.338C487.34 40.392 485.898 38.6 483.868 38.6ZM490.02 38.866C490.02 38.502 490.496 37.942 490.874 37.942C490.944 37.942 491.014 37.984 491.084 38.054C491.21 38.236 491.504 39.146 491.938 40.812C492.148 41.638 492.484 42.758 492.932 44.186C493.254 43.136 493.772 41.652 494.5 39.734C494.78 39.006 495.074 38.642 495.382 38.642C495.508 38.642 495.62 38.754 495.718 38.964C495.746 39.02 495.802 39.202 495.886 39.496C495.928 39.65 496.138 40.266 496.544 41.344C496.838 42.142 497.132 42.968 497.398 43.808C497.65 42.968 498.224 41.176 499.106 38.446C499.148 38.264 499.232 38.026 499.358 37.718C499.442 37.578 499.526 37.508 499.624 37.508C499.974 37.508 500.38 38.292 500.38 38.614C500.38 38.67 500.226 39.062 499.918 39.79C499.54 40.672 499.176 41.722 498.826 42.94C498.826 42.94 498.546 44.018 497.972 46.16C497.874 46.538 497.678 46.734 497.384 46.734C497.258 46.734 497.16 46.636 497.062 46.426C497.02 46.328 496.866 45.838 496.614 44.928C496.474 44.41 496.25 43.78 495.956 43.038C495.704 42.422 495.452 41.806 495.2 41.176C494.514 43.108 493.926 44.984 493.408 46.818C493.31 47.196 493.114 47.392 492.82 47.392C492.54 47.392 492.428 46.972 492.302 46.37C491.812 44.27 491.28 42.1 490.482 40.084C490.174 39.3 490.02 38.894 490.02 38.866ZM507.141 47.182C506.777 47.182 506.399 46.398 506.399 46.076C506.399 45.978 506.455 45.782 506.581 45.502C507.141 44.452 507.617 42.898 507.925 41.764C508.219 40.686 508.499 39.622 508.793 38.544C508.905 38.166 509.101 37.97 509.395 37.97C509.549 37.97 509.689 38.152 509.801 38.502C510.235 40.448 510.879 42.338 511.607 44.186C512.041 42.996 512.447 41.582 512.853 39.944C512.951 39.482 513.119 38.782 513.357 37.872C513.455 37.494 513.651 37.298 513.931 37.298C514.113 37.298 514.281 37.55 514.407 38.054L514.617 39.062C515.135 41.288 515.681 43.108 516.255 44.522C516.577 45.362 516.745 45.796 516.745 45.838C516.745 46.202 516.283 46.748 515.905 46.748C515.821 46.748 515.751 46.706 515.681 46.636C515.597 46.524 515.289 45.572 514.771 43.78C514.449 42.688 514.141 41.596 513.833 40.518C513.609 41.316 512.069 46.79 511.915 46.972C511.817 47.098 511.719 47.168 511.621 47.168C511.439 47.168 511.271 47.028 511.117 46.748C510.991 46.482 510.921 46.244 510.921 46.02C510.921 45.978 510.921 45.936 510.935 45.894C510.753 45.376 510.235 43.71 509.367 40.868C509.073 41.848 508.527 43.584 507.715 46.076C507.673 46.286 507.561 46.58 507.407 46.972C507.323 47.112 507.239 47.182 507.141 47.182ZM517.88 42.464C517.824 41.218 517.796 40.224 517.796 39.496C517.796 38.936 517.838 38.558 517.922 38.362C518.076 38.054 518.398 37.9 518.902 37.9C519.196 37.9 519.336 37.998 519.336 38.208C519.336 38.18 519.294 38.572 519.21 39.37C519.112 40.252 519.056 41.484 519.056 43.094C519.056 44.312 519.112 44.97 519.238 45.082C519.28 45.11 519.35 45.124 519.448 45.124C520.26 45.124 522.668 44.032 523.48 43.612C523.396 41.932 523.354 40.546 523.354 39.454C523.354 38.67 523.382 37.886 524.39 37.886C524.74 37.886 524.908 37.998 524.908 38.208C524.908 38.502 524.824 39.468 524.74 39.706C524.67 40.56 524.628 41.526 524.628 42.632C524.628 43.402 524.684 44.2 524.782 45.026C524.866 45.726 524.908 46.104 524.908 46.174C524.908 46.524 524.418 46.762 524.04 46.762C523.816 46.762 523.676 46.678 523.606 46.524C523.592 46.468 523.564 45.992 523.536 45.082C522.458 45.698 519.784 46.748 518.58 46.748C518.188 46.748 517.992 46.538 517.992 46.104C517.992 44.886 517.936 43.682 517.88 42.464ZM529.085 46.93C527.251 46.93 526.313 45.516 526.313 43.808C526.313 40.252 529.477 37.676 532.907 37.676C533.257 37.676 533.467 37.732 533.537 37.858C533.579 37.928 533.593 38.152 533.593 38.516C533.593 38.642 533.635 38.838 533.719 39.09C533.803 39.342 533.845 39.524 533.845 39.65C533.845 40.056 533.229 40.448 532.865 40.448C532.711 40.448 532.585 40.28 532.487 39.958C532.445 39.72 532.389 39.496 532.333 39.258C530.667 39.524 529.407 40.14 528.525 41.134C527.755 42.016 527.363 42.856 527.363 43.654C527.363 44.858 528.483 45.502 529.575 45.502C530.751 45.502 532.165 44.774 533.187 44.214C533.733 43.92 534.041 43.766 534.111 43.766C534.293 43.766 534.377 43.948 534.377 44.312C534.377 44.466 534.265 44.62 534.055 44.802C533.873 44.914 533.705 45.026 533.537 45.152C531.843 46.342 530.359 46.93 529.085 46.93ZM535.914 42.324C535.816 41.022 535.774 39.916 535.774 39.034C535.774 38.474 536.264 38.152 536.782 38.152C537.104 38.152 537.258 38.278 537.258 38.53C537.258 38.544 537.244 38.852 537.202 39.468C537.146 40.182 537.118 40.938 537.118 41.708C538.462 41.274 539.806 41.008 541.15 40.938L541.136 39.02C541.136 38.152 541.304 37.676 542.256 37.676C542.704 37.676 542.662 37.9 542.634 38.25L542.55 38.978C542.494 39.594 542.452 40.238 542.41 40.924C542.592 40.966 542.774 41.05 542.942 41.176C543.152 41.33 543.264 41.484 543.264 41.638C543.264 41.89 542.97 42.016 542.396 42.016C542.396 43.276 542.438 44.242 542.522 44.928C542.606 45.18 542.676 45.698 542.676 45.964C542.676 46.314 542.186 46.552 541.808 46.552C541.108 46.552 541.29 45.502 541.29 44.564C541.29 44.256 541.276 43.864 541.248 43.374C541.22 42.716 541.206 42.324 541.192 42.17C539.694 42.38 538.336 42.702 537.146 43.136C537.202 44.074 537.272 44.83 537.356 45.404C537.468 46.062 537.524 46.426 537.524 46.496C537.524 46.818 536.894 47.028 536.628 47.028C536.418 47.028 536.292 46.958 536.236 46.804C536.194 46.678 536.166 46.482 536.152 46.216V45.6C536.082 44.508 535.998 43.416 535.914 42.324ZM426.35 62.754C426.35 62.474 426.658 61.816 426.994 61.816C427.064 61.816 427.148 61.872 427.232 61.984C427.26 62.026 427.428 62.292 427.736 62.782C428.464 63.986 429.29 65.176 430.214 66.338C430.382 66.058 430.998 65.022 432.048 63.23C432.216 62.936 432.482 62.502 432.846 61.956C433.014 61.746 433.224 61.634 433.49 61.634C433.84 61.634 434.414 61.872 434.414 62.278C434.414 62.376 434.246 62.642 433.91 63.076C433.7 63.356 433.476 63.636 433.266 63.916C431.852 65.848 430.732 67.696 429.906 69.446C429.78 69.768 429.64 70.09 429.5 70.412C429.29 70.79 429.038 70.972 428.73 70.972C428.45 70.972 427.974 70.748 427.974 70.426C427.974 70.384 428.52 69.362 429.612 67.388L428.1 65.386C427.722 64.924 427.204 64.224 426.518 63.286C426.406 63.09 426.35 62.908 426.35 62.754ZM439.069 71.098C436.577 71.098 434.575 69.222 434.575 66.702C434.575 63.776 437.221 61.438 440.077 61.438C442.569 61.438 444.585 63.3 444.585 65.834C444.585 68.76 441.925 71.098 439.069 71.098ZM439.489 62.6C437.501 62.6 436.101 64.448 436.101 66.338C436.101 68.27 437.543 70.076 439.559 70.076C441.547 70.076 442.961 68.228 442.961 66.338C442.961 64.392 441.519 62.6 439.489 62.6ZM446.075 66.464C446.019 65.218 445.991 64.224 445.991 63.496C445.991 62.936 446.033 62.558 446.117 62.362C446.271 62.054 446.593 61.9 447.097 61.9C447.391 61.9 447.531 61.998 447.531 62.208C447.531 62.18 447.489 62.572 447.405 63.37C447.307 64.252 447.251 65.484 447.251 67.094C447.251 68.312 447.307 68.97 447.433 69.082C447.475 69.11 447.545 69.124 447.643 69.124C448.455 69.124 450.863 68.032 451.675 67.612C451.591 65.932 451.549 64.546 451.549 63.454C451.549 62.67 451.577 61.886 452.585 61.886C452.935 61.886 453.103 61.998 453.103 62.208C453.103 62.502 453.019 63.468 452.935 63.706C452.865 64.56 452.823 65.526 452.823 66.632C452.823 67.402 452.879 68.2 452.977 69.026C453.061 69.726 453.103 70.104 453.103 70.174C453.103 70.524 452.613 70.762 452.235 70.762C452.011 70.762 451.871 70.678 451.801 70.524C451.787 70.468 451.759 69.992 451.731 69.082C450.653 69.698 447.979 70.748 446.775 70.748C446.383 70.748 446.187 70.538 446.187 70.104C446.187 68.886 446.131 67.682 446.075 66.464ZM459.659 63.832C459.533 63.65 459.477 63.44 459.477 63.23C459.477 62.852 459.631 62.572 459.953 62.418C461.031 61.9 462.431 61.648 464.153 61.648C464.671 61.648 465.077 61.69 465.357 61.76C465.805 61.886 466.113 62.11 466.267 62.46C466.309 62.558 466.337 62.628 466.337 62.698C466.337 62.796 466.309 62.866 466.267 62.922C466.169 63.034 465.931 63.104 465.525 63.132C464.755 63.16 464.013 63.202 463.327 63.272C463.271 64.154 463.243 64.98 463.243 65.764C463.243 67.122 463.327 68.34 463.509 69.432C463.607 70.048 463.663 70.384 463.663 70.426C463.663 70.762 463.047 70.958 462.767 70.958C462.557 70.958 462.431 70.888 462.361 70.734C462.263 70.468 462.179 68.06 462.123 63.51C461.787 63.636 461.451 63.762 461.115 63.874C460.625 64.056 460.317 64.14 460.163 64.14C459.953 64.14 459.785 64.042 459.659 63.832ZM466.552 71.182C466.118 71.182 465.684 70.538 465.684 70.132C465.684 70.02 465.782 69.81 465.978 69.502C466.104 69.292 466.244 69.082 466.384 68.872C466.902 67.99 467.42 66.898 467.924 65.596L469.184 62.194C469.338 61.816 469.618 61.62 470.038 61.62C470.234 61.62 470.388 61.718 470.5 61.914C470.598 62.096 470.696 62.334 470.794 62.628C470.948 63.09 471.018 63.342 471.032 63.37C471.802 65.414 472.614 67.178 473.482 68.648C473.622 68.858 473.762 69.068 473.888 69.278C474.07 69.6 474.168 69.81 474.168 69.908C474.168 70.3 473.65 70.678 473.286 70.678C473.104 70.678 472.908 70.482 472.698 70.076C472.586 69.796 472.474 69.516 472.348 69.222C470.99 69.544 469.282 69.908 467.224 70.286C466.972 70.888 466.748 71.182 466.552 71.182ZM467.868 68.816C469.296 68.578 470.584 68.256 471.746 67.822C471.368 66.884 470.766 65.47 469.954 63.594C469.632 64.308 468.946 66.044 467.868 68.816ZM475.221 63.468C475.221 62.95 475.249 62.614 475.319 62.46C475.431 62.138 475.697 61.97 476.117 61.97C476.397 61.97 476.537 62.068 476.537 62.278C476.537 62.236 476.509 62.628 476.453 63.44C476.411 64.154 476.383 64.84 476.383 65.498C476.383 66.898 476.481 68.172 476.663 69.306C477.419 69.306 478.133 69.25 478.805 69.124C478.931 69.11 479.421 68.984 480.275 68.774C480.989 68.592 481.451 68.494 481.633 68.494C481.927 68.494 482.081 68.62 482.081 68.886C482.081 69.25 481.899 69.544 481.535 69.768C480.457 70.412 477.965 70.846 476.691 70.846C476.061 70.846 475.683 70.72 475.543 70.454C475.361 70.118 475.221 64.406 475.221 63.468ZM483.39 70.538C483.264 70.328 483.138 64.098 483.138 63.188C483.138 62.852 483.138 62.656 483.152 62.6C483.25 62.166 483.698 61.9 484.188 61.9C484.51 61.9 484.664 61.998 484.664 62.208C484.664 62.488 484.594 63.37 484.51 63.608C484.44 64.448 484.398 65.358 484.398 66.352C487.268 63.664 488.92 62.306 489.298 62.194C489.424 62.152 489.55 62.138 489.704 62.138C490.151 62.138 490.376 62.264 490.376 62.516C490.376 62.614 490.222 62.81 489.9 63.076C489.788 63.174 489.018 63.902 487.576 65.232C486.666 66.1 485.952 66.786 485.448 67.276C486.806 68.298 488.248 69.152 489.829 69.768C490.068 69.88 490.194 69.978 490.194 70.062C490.194 70.216 490.04 70.356 489.732 70.482C489.466 70.608 489.256 70.664 489.074 70.664C488.92 70.664 488.108 70.412 486.666 69.894C485.812 69.6 485.084 69.208 484.495 68.746C484.608 69.6 484.664 70.076 484.664 70.174C484.664 70.356 484.566 70.496 484.37 70.622C484.188 70.72 484.006 70.762 483.824 70.762C483.6 70.762 483.46 70.692 483.39 70.538Z" fill="#3E71F4"/>
<path d="M342.962 70.44C371.52 55.9126 409.621 63.8743 417.127 64.8622" stroke="#3E71F4" stroke-width="1.92" stroke-linecap="round" stroke-linejoin="round"/>
<path d="M413.19 56.16C415.815 61.8347 417.128 64.7618 417.128 64.9413C417.128 65.2106 409.504 67.0956 405.98 69.96" stroke="#3E71F4" stroke-width="1.92" stroke-linecap="round" stroke-linejoin="round"/>
<path d="M258.962 109.925C237.309 99.3321 208.419 105.137 202.727 105.858" stroke="#3E71F4" stroke-width="1.92" stroke-linecap="round" stroke-linejoin="round"/>
<path d="M205.713 99.5125C203.723 103.65 202.727 105.785 202.727 105.915C202.727 106.112 208.508 107.486 211.18 109.575" stroke="#3E71F4" stroke-width="1.92" stroke-linecap="round" stroke-linejoin="round"/>
</g>
<defs>
<clipPath id="clip0_7_225">
<rect width="600" height="187" fill="white"/>
</clipPath>
</defs>
</svg>
